<?xml version="1.0" encoding="utf-8" ?><svg xmlns="http://www.w3.org/2000/svg" xmlns:xlink="http://www.w3.org/1999/xlink" width="1024" height="1024" viewBox="0 0 1024 1024"><path fill="#161E30" d="M0 0L1024 0L1024 1024L0 1024L0 0Z"/><path fill="#7BEFF3" d="M630.305 72.2081C635.747 71.469 648.823 71.927 654.523 72.292C692.431 74.497 729.181 86.1687 761.415 106.24C786.258 121.565 807.755 141.742 824.622 165.564C829.942 173.168 834.248 181.114 839.141 188.821C879.873 252.974 893.72 336.534 857.702 406.011C853.163 414.768 848.079 422.678 842.773 431.163C849.695 437.293 859.658 443.804 867.153 449.798C885.853 464.752 906.867 480.712 923.115 498.162C931.83 507.522 941.078 522.426 947.673 533.258C944.958 538.835 935.596 553.546 932.083 559.383C905.7 602.655 876.07 643.863 843.448 682.65C748.932 794.716 629.117 883.975 487.413 925.154C450.167 935.978 412.674 944.517 373.909 947.796C369.627 948.493 358.178 948.994 353.402 949.335C309.922 952.44 263.896 950.84 221.134 942.181C212.08 940.348 202.287 938.617 193.665 935.273C181.056 917.726 167.853 897.438 157.069 878.785C108.151 795.842 80.7125 701.999 77.2437 605.767C71.8818 442.84 141.223 283.298 251.418 165.044C260.83 154.956 270.345 144.963 279.96 135.069C283.758 131.23 290.935 123.838 295.124 120.976C302.192 122.051 314.728 126.03 321.658 128.252C360.18 140.605 397.41 156.42 433.748 174.099C441.954 165.707 454.462 155.734 463.511 147.724C515.02 102.13 561.085 77.5566 630.305 72.2081Z"/><path fill="#161E30" d="M297.767 131.874C304.255 132.973 320.557 139.048 327.52 141.254C372.988 155.657 417.013 176.819 459.493 198.32C472.717 205.013 485.412 212.635 498.49 219.323C510.375 247.829 528.186 273.481 550.742 294.578C587.714 328.872 636.531 351.948 685.684 361.542C699.911 364.319 717.746 367.372 732.18 366.836C757.301 385.003 783.2 401.881 808.74 419.461C847.174 445.917 881.474 473.101 915.533 505.016C906.566 523.763 885.676 554.886 873.823 572.548C836.588 629.21 792.706 681.213 743.113 727.447C726.013 743.506 710.973 757.048 692.264 771.597C665.75 791.891 638.041 810.573 609.286 827.542C484.625 901.921 339.237 933.95 194.861 918.841C191.326 914.853 187.696 908.13 184.641 903.531C121.035 807.779 86.6303 698.525 86.9921 583.472C87.3812 546.304 91.5569 509.273 99.4545 472.953C128.337 336.368 200.04 229.012 297.767 131.874Z"/><path fill="#7BEFF3" d="M301.194 163.603C310.915 165.552 330.616 172.891 340.03 176.541C357.683 183.248 375.115 190.521 392.299 198.351C416.321 209.464 440.017 222.279 463.762 234.023C467.173 235.71 470.733 237.59 473.937 239.638C477.269 245.529 479.741 251.509 483.344 257.947C528.925 339.366 621.301 386.474 712.132 394.31C723.489 394.111 728.805 401.43 737.785 407.584C772.486 431.365 808.098 455.003 841.331 480.83C852.374 489.412 873.71 506.332 882.27 516.865C880.264 522.072 874.243 529.912 871.106 534.795C802.25 641.975 716.939 736.834 605.695 801.246C597.477 805.68 589.109 809.924 580.854 814.246C483.41 865.254 370.8 894.603 260.536 890.59C245.683 890.049 230.653 888.11 215.814 886.348C215.486 885.925 215.163 885.498 214.846 885.068C211.217 880.206 207.953 874.54 204.585 869.439C134.66 763.559 102.068 632.285 120.304 506.34C136.343 395.568 186.771 294.763 258.258 209.575C268.686 197.147 288.6 172.987 301.194 163.603Z"/><path fill="#161E30" d="M511.306 314.545C512.025 314.509 512.59 314.532 513.165 315.064C523.37 324.501 533.437 333.948 544.831 341.977C528.377 347.85 511.357 352.829 494.636 357.913C480.765 362.254 466.87 366.519 452.951 370.705C442.826 373.686 432.492 376.424 422.456 379.624C410.36 402.787 394.291 427.38 383.141 450.297C356.617 458.769 329.135 467.461 302.48 475.449C290.134 479.117 277.83 482.927 265.572 486.878C259.693 488.746 250.97 491.265 245.5 493.529C236.475 505.277 223.28 527.522 214.816 540.72L159.8 626.618C135.018 621.252 127.35 655.044 149.333 662.153C162.669 666.465 177.837 653.536 173.314 639.385C172.148 635.736 171.248 634.366 169.133 631.237C177.154 619.609 185.004 606.452 192.804 594.474C212.761 563.724 232.528 532.852 252.104 501.859C261.181 499.698 275.948 494.54 285.525 491.588C307.701 484.844 329.836 477.963 351.928 470.947C385.23 460.48 418.623 450.302 452.102 440.416C476.571 433.039 499.874 425.569 524.615 418.72C521.935 423.842 514.466 433.657 511.04 439.077C498.803 458.432 485.237 476.827 473.135 496.327C438.789 488.908 400.738 509.627 392.472 544.946C391.383 549.594 390.488 553.514 390.653 558.349C366.554 564.585 342.952 573.448 319.019 580.331C311.949 582.364 303.691 584.394 297.033 587.421C287.231 603.972 277.645 618.188 267.401 634.291L216.802 713.379L185.802 761.187C181.031 768.518 175.373 778.071 170.269 784.857C163.554 769.571 159.118 757.748 153.57 742.041C164.569 723.463 179.133 702.557 191.098 684.428L230.879 622.931C235.575 615.248 241.597 606.584 246.599 598.981C256.817 583.597 266.883 568.113 276.796 552.532C281.282 550.98 286.723 549.54 291.429 548.012C313.223 540.984 335.109 534.245 357.082 527.796C370.098 523.928 383.146 520.001 396.017 515.672C399.291 514.57 401.155 511.604 400.274 508.161C399.438 504.893 396.305 504.443 393.487 505.371C386.008 507.835 378.502 510.295 370.984 512.659L321.531 527.887L289.202 537.716C283.5 539.452 277.718 541.05 272.162 543.186C269.702 543.897 268.173 546.315 266.832 548.362C256.354 564.356 246.249 580.609 235.914 596.686L189.399 668.329C182.157 679.568 174.83 690.753 167.421 701.883C161.551 710.577 154.784 720.04 149.404 728.943C145.028 717.327 141.86 704.208 139.07 692.136C130.654 656.718 125.996 620.51 125.172 584.115C133.091 572.241 140.992 559.722 149.197 548.13C162.906 557.282 182.985 544.139 177.026 526.17C175.518 521.569 172.141 517.817 167.724 515.836C162.93 513.652 156.972 513.246 152.019 515.156C147.442 516.938 143.769 520.476 141.816 524.982C139.501 530.204 139.523 535.042 141.453 540.303C136.323 548.557 131.005 556.693 125.503 564.705C125.348 536.437 130.638 507.309 135.236 479.661C153.337 473.604 173.836 468.016 192.316 462.34L325.168 421.86C329.212 425.706 332.996 428.494 338.752 429.279C343.987 430 349.285 428.508 353.375 425.161C361.583 418.536 363.354 405.514 355.865 397.691C343.368 384.637 321.844 392.57 322.442 411.422C313.141 415.1 303.151 417.754 293.597 420.707C260.479 430.944 227.248 440.774 194.147 451.079C175.554 456.867 156.613 461.784 138.112 467.897C141.184 453.137 145.108 438.567 149.864 424.261C164.552 418.579 188.8 412.261 204.296 407.588L307.145 376.554L438.198 336.962C462.041 329.647 487.431 320.949 511.306 314.545Z"/><path fill="#161E30" d="M304.038 175.402C308.771 177.047 314.136 178.456 319.024 180.078C327.702 183.046 336.322 186.182 344.878 189.485C378.914 202.903 412.114 218.353 444.298 235.751C448.342 237.921 463.385 245.09 465.058 247.342C470.282 254.37 475.473 265.894 480.571 273.958C488.155 285.953 495.004 294.32 504.301 304.944C496.984 307.789 487.592 310.542 479.993 312.915L440.45 325.14L307.465 365.457C293.903 369.904 280.012 373.964 266.306 378.006C228.736 389.084 191.421 400.845 153.793 411.729C172.265 358.86 197.961 308.8 230.149 262.972C235.762 254.997 241.77 247.285 247.785 239.61C265.286 217.279 283.259 194.79 304.038 175.402Z"/><path fill="#7BEFF3" d="M442.757 259.076C456.384 258.159 468.219 266.089 466.819 280.786C466.249 286.542 463.366 291.82 458.832 295.411C454.6 298.776 449.183 300.279 443.822 299.574C436.631 298.588 431.514 294.126 427.361 288.546C417.947 290.844 407.402 294.297 398.017 297.072C375.767 303.6 353.61 310.442 331.553 317.595C307.045 325.381 282.667 332.025 258.144 340.041C258.206 349.927 255.685 354.191 247.042 358.779C240.756 361.236 231.901 361.073 227.029 356.148C207.837 336.746 234.142 308.516 254.737 330.001C290.932 318.434 327.574 308.015 363.777 296.439C384.012 289.969 404.51 284.471 424.682 277.774C426.762 266.892 432.094 261.446 442.757 259.076Z"/><path fill="#161E30" d="M237.446 335.063C246.66 334.587 249.786 342.406 241.424 347.883C231.755 349.315 229.532 339.984 237.446 335.063Z"/><path fill="#7BEFF3" d="M314.064 195.837C324.676 195.299 333.731 203.432 334.331 214.041C334.931 224.65 326.852 233.752 316.247 234.415C305.553 235.083 296.357 226.921 295.752 216.224C295.147 205.526 303.363 196.379 314.064 195.837Z"/><path fill="#161E30" d="M312.949 208.202C316.452 206.999 320.277 208.792 321.593 212.254C322.908 215.716 321.239 219.597 317.821 221.023C315.511 221.987 312.858 221.616 310.901 220.055C308.943 218.494 307.992 215.99 308.418 213.523C308.845 211.055 310.581 209.016 312.949 208.202Z"/><path fill="#161E30" d="M573.938 362.225C578.382 364.166 584.664 368.116 589.668 370.419C595.015 372.88 602.538 375.88 607.373 378.592C610.459 387.51 614.026 405.621 616.282 415.547L631.709 483.352C625.102 492.015 618.295 500.523 611.293 508.869C605.849 515.381 598.863 523.321 594.175 530.197C595.289 537.255 598.461 548.687 600.053 556.192C604.791 579.072 609.764 601.902 614.972 624.679C617.437 635.7 619.835 646.735 622.166 657.785C623.339 663.383 625.031 672.871 626.734 678.051C643.239 692.102 661.879 704.91 678.513 718.945C682.755 722.525 686.841 725.516 690.798 729.518C681.128 737.247 666.53 749.592 656.49 756.302L656.069 756C656.169 750.744 654.965 746.031 651.602 741.874C648.244 737.732 643.337 735.146 638.023 734.717C627.37 733.825 617.776 741.242 617.081 752.33C616.557 760.7 622.405 772.456 631.714 772.769C630.636 774.751 616.721 782.896 613.71 784.742C603.791 790.81 590.432 797.888 580.031 803.214C572.686 797.293 565.114 791.658 557.334 786.322C555.921 777.183 550.806 757.945 548.412 748.676C549.45 748.079 550.458 747.434 551.435 746.743C566.616 735.879 560.457 713.764 540.961 711.287C538.581 698.004 534.08 680.631 531.024 667.028L513.743 586.789C523.796 565.697 525.247 545.955 513.45 525.234C506.89 513.711 496.166 503.729 483.202 500.156C493.747 483.106 506.154 465.741 517.342 449.041C523.775 439.439 531.248 429.704 537.022 419.734C540.281 423.123 543.832 425.447 548.509 426.353C553.786 427.325 559.232 426.112 563.598 422.993C577.099 413.509 573.981 391.537 555.648 389.173C561.862 380.688 568.061 371.024 573.938 362.225Z"/><path fill="#161E30" d="M620.168 383.887C623.112 384.494 626.926 385.936 629.814 386.994C640.971 391.08 652.263 393.903 663.797 396.777C665.809 407.974 669.2 420.849 671.75 432.095L685.211 492.766L696.821 546.203C699.062 556.654 701.185 568.253 704.024 578.463C716.233 588.287 728.347 598.228 740.367 608.284C753.704 619.262 766.848 629.84 779.882 641.19C777.655 643.573 775.373 646.216 773.282 648.722C764.734 658.964 755.399 668.291 746.222 677.951C730.915 665.022 714.246 653.132 699.095 640.222C701.048 631.355 701.492 622.965 693.911 616.355C689.921 612.873 684.659 611.216 679.394 611.782C674.41 612.336 669.857 614.87 666.76 618.815C659.818 627.593 661.356 640.133 670.192 647.051C676.849 650.899 683.949 651.179 690.453 646.981C706.027 658.148 722.686 672.856 738.901 684.881C725.608 698.487 713.335 709.584 699.562 722.502C692.124 716.935 685.337 710.93 678.069 705.306C663.628 694.131 649.538 682.953 635.591 671.163C624.935 625.384 616.586 577.997 605.093 532.561C617.812 517.347 630.493 501.167 643.283 486.258C637.445 462.249 631.931 438.162 626.741 414.004C624.909 405.615 621.153 391.881 620.168 383.887Z"/><path fill="#161E30" d="M675.58 399.637C683.253 401.005 690.947 402.256 698.658 403.388C701.511 403.782 715.851 404.979 717.206 405.885C761.492 435.486 805.787 466.42 847.55 499.538C855.303 505.686 861.673 512.065 869.701 517.879C863.395 526.531 857.749 535.862 851.778 544.799C842.405 558.843 832.781 572.717 822.909 586.414C811.764 602.007 799.516 618.317 786.489 632.389C761.67 612.7 737.125 592.67 712.859 572.303C701.079 514.702 687.752 457.174 675.58 399.637Z"/><path fill="#7BEFF3" d="M819.253 510.562C826.356 509.193 833.646 511.757 838.329 517.27C843.011 522.783 844.361 530.391 841.861 537.179C839.361 543.967 833.399 548.882 826.259 550.041C815.442 551.796 805.22 544.542 803.306 533.753C801.391 522.964 808.493 512.636 819.253 510.562Z"/><path fill="#161E30" d="M823.012 525.444C825.256 525.672 827.561 526.462 828.673 528.601C829.276 529.761 829.328 531.131 828.815 532.333C827.982 534.318 826.434 534.895 824.605 535.671C816.373 535.944 816.81 528.925 823.012 525.444Z"/><path fill="#161E30" d="M389.939 569.096C390.123 569.252 395.289 583.79 396.324 585.937C366.658 615.207 334.075 644.024 305.069 674.072C304.382 674.784 304.386 677.879 304.881 678.34C310.386 683.478 325.107 689.931 331.275 693.013C327.146 700.763 320.594 709.825 315.993 717.562C303.864 737.955 290.457 757.241 277.541 777.009C257.298 807.99 238.359 839.963 217.253 870.447C211.661 862.025 205.627 851.846 200.345 843.17C203.628 837.03 208.755 829.596 212.437 823.513C222.541 806.819 233.528 790.778 243.973 774.282C246.594 770.236 268.459 742.125 251.929 744.367C248.004 746.473 237.109 765.599 233.793 770.669C220.497 790.994 207.969 811.733 194.304 831.836C187.08 820.31 181.224 808.2 174.634 796.332C189.692 775.714 205.921 748.643 220.187 726.82C248.672 683.404 276.767 639.733 304.468 595.812C333.093 587.477 361.43 577.192 389.939 569.096Z"/><path fill="#161E30" d="M455.832 505.213C471.032 504.48 489.191 510.81 498.791 522.567C530.215 561.055 499.847 611.856 452.327 608.963C446.471 620.466 441.772 635.506 436.547 647.559C431.1 660.122 426.143 673.108 420.636 685.678C416.05 696.146 412.456 708.521 406.156 718.076C399.047 715.512 386.832 709.251 379.673 705.832C360.926 697.109 337.906 684.46 319.013 674.773C327.806 665.438 340.603 653.959 350.02 644.923L409.217 587.985C404.994 579.919 402.244 574.676 401.366 565.403C399.97 550.661 404.602 536.857 414.189 525.601C425.029 512.873 439.34 506.545 455.832 505.213Z"/><path fill="#7BEFF3" d="M455.267 513.685C458.106 513.339 461.774 513.643 464.623 513.984C489.325 516.94 506.487 538.183 502.374 563.359C500.539 574.975 494.052 585.342 484.408 592.072C473.516 599.633 460.056 602.532 447.016 600.127C443.246 610.371 438.358 621.352 434.209 631.573L402.853 708.034C398.115 706.466 386.696 700.357 381.673 697.8C375.696 695.094 366.868 690.05 360.791 686.901C351.442 682.167 342.038 677.545 332.579 673.034C334.903 670.24 340.727 664.964 343.64 662.147L365.959 640.594C383.769 623.557 402.998 604.214 420.967 587.963C415.645 581.954 410.841 573.398 410.086 565.327C407.369 536.268 428.047 517.059 455.267 513.685Z"/><path fill="#161E30" d="M340.911 698.053C345.969 700.064 355.554 705.26 360.743 707.908C361.413 713.983 363.78 722.987 365.241 729.246C368.12 741.404 370.927 753.58 373.661 765.772L387.27 827.913C390.233 841.519 393.011 855.696 396.69 869.06C358.963 877.021 320.491 880.911 281.934 880.661C261.79 880.482 245.623 880.023 225.878 877.14C228.035 872.927 234.94 862.755 237.757 858.34L268.261 811.538L340.911 698.053Z"/><path fill="#161E30" d="M504.968 599.885C506.499 601.517 527.639 701.303 531.326 713.572C530.33 714.087 529.366 714.659 528.439 715.288C513.714 725.243 521.011 748.882 537.921 750.718C539.905 758.322 546.291 789.851 549.538 793.669C554.61 799.631 563.375 804.394 569.853 808.869C556.508 814.802 543.647 821.467 530.25 827.371C523.647 830.068 517.084 832.863 510.565 835.757C501.082 792.46 491.255 749.238 481.086 706.097L461.768 619.517C480.151 618.285 491.972 612.539 504.968 599.885Z"/><path fill="#161E30" d="M453.907 632.976C454.499 634.144 456.475 644.671 456.911 646.732C459.01 656.587 461.171 666.428 463.395 676.255C476.298 730.534 488.641 784.945 500.422 839.479C486.152 844.569 475.259 848.413 460.603 852.589L459.268 852.846C458.332 852.068 458.137 851.182 457.873 850.008C450.098 815.496 443.179 780.28 435.199 745.862C439.794 741.847 442.607 738.1 443.055 731.63C443.421 726.345 441.603 721.141 438.025 717.233C433.41 712.149 428.77 711.03 422.355 710.805C428.662 695.974 434.77 681.06 440.679 666.066C444.984 655.055 449.078 643.742 453.907 632.976Z"/><path fill="#161E30" d="M554.784 350.067C558.225 352.31 561.689 354.517 565.175 356.689C555.237 369.769 540.438 391.816 531.571 405.687C511.287 411.454 491.081 417.491 470.958 423.796C449.174 430.194 427.444 436.776 405.772 443.542L396.361 446.432C407.381 427.156 418.872 408.164 429.797 388.736C436.683 386.076 447.343 383.25 454.708 380.956C474.213 374.893 493.763 368.981 513.358 363.219C527.21 359.101 541.322 355.27 554.784 350.067Z"/><path fill="#161E30" d="M372.951 714.159C382.13 717.885 393.357 725.149 404.276 729.56C405.071 741.849 412.608 749.164 424.911 749.419C432.025 784.997 441.764 820.328 448.419 856.217L440.656 858.54C429.264 861.486 417.787 864.078 406.369 866.947C398.846 831.408 391.018 795.934 382.886 760.529L372.951 714.159Z"/><path fill="#161E30" d="M678.708 623.673C682.5 622.438 686.577 624.499 687.831 628.284C689.085 632.069 687.045 636.156 683.267 637.43C679.46 638.713 675.337 636.655 674.074 632.842C672.81 629.03 674.889 624.917 678.708 623.673Z"/><path fill="#161E30" d="M551.335 401.823C553.684 401.004 556.292 401.509 558.165 403.147C560.038 404.784 560.887 407.301 560.389 409.738C559.891 412.176 558.123 414.158 555.758 414.93C552.152 416.107 548.271 414.16 547.058 410.566C545.845 406.972 547.753 403.071 551.335 401.823Z"/><path fill="#161E30" d="M421.113 723.338C424.585 722.023 428.466 723.764 429.793 727.231C431.12 730.698 429.393 734.585 425.931 735.925C422.451 737.271 418.54 735.533 417.206 732.049C415.873 728.564 417.624 724.659 421.113 723.338Z"/><path fill="#161E30" d="M538.746 724.755C542.338 723.979 545.886 726.24 546.7 729.824C547.513 733.408 545.289 736.979 541.713 737.829C539.367 738.386 536.903 737.641 535.259 735.877C533.615 734.113 533.045 731.602 533.766 729.302C534.488 727.001 536.389 725.265 538.746 724.755Z"/><path fill="#161E30" d="M634.9 747.7C638.193 746.762 641.621 748.673 642.555 751.966C643.489 755.259 641.575 758.685 638.281 759.616C634.992 760.544 631.572 758.634 630.639 755.346C629.707 752.058 631.614 748.636 634.9 747.7Z"/><path fill="#161E30" d="M340.564 404.457C349.052 405.53 351.265 411.616 343.179 416.517C334.227 416.111 332.575 408.947 340.564 404.457Z"/><path fill="#161E30" d="M157.589 526.818C160.567 525.947 163.689 527.65 164.569 530.626C165.449 533.602 163.756 536.729 160.783 537.618C157.797 538.512 154.653 536.81 153.768 533.82C152.884 530.831 154.597 527.692 157.589 526.818Z"/><path fill="#161E30" d="M153.431 639.24C156.36 638.348 159.455 640.015 160.321 642.952C161.187 645.889 159.491 648.969 156.547 649.808C153.639 650.637 150.607 648.968 149.752 646.068C148.897 643.168 150.539 640.121 153.431 639.24Z"/><path fill="#161E30" d="M627.794 86.7109C627.828 86.7071 627.861 86.7032 627.895 86.6994C725.721 80.8064 825.443 146.56 836.054 248.574C836.818 255.916 836.839 263.088 836.7 270.191C835.983 306.821 824.394 342.936 804.404 373.565C799.854 380.536 794.599 386.75 789.334 393.18C774.443 383.799 758.778 372.746 743.929 362.961C764.618 340.688 777.833 302.335 778.11 272.23C778.201 262.336 777.125 253.301 775.539 243.608C769.651 216.512 759.69 202.502 741.144 182.415C715.563 154.71 677.346 143.837 640.781 141.985C615.451 140.703 583.093 147.716 560.827 160.344C541.758 171.158 515.923 193.477 499.828 208.623C490.17 202.628 479.289 197.179 469.165 191.936C462.661 188.568 455.449 185.491 449.302 181.55C503.76 131.873 550.857 91.8666 627.794 86.7109Z"/><path fill="#161E30" d="M656.91 196.219C704.22 194.053 737.535 217.364 763.64 254.791C763.034 297.153 757.089 322.637 730.209 357.026C701.031 355.066 680.717 351.539 653.221 342.53C606.599 326.968 561.134 298.946 532.293 258.339C539.748 252.518 547.46 244.617 555.129 238.449C586.681 213.071 616.046 198.511 656.91 196.219Z"/><path fill="#161E30" d="M923.117 514.81C925.104 516.821 933.248 530.149 935.365 533.473C924.019 555.074 907.917 579.023 894.049 599C846.166 667.983 790.255 732.735 725.095 785.968C715.608 793.718 706.092 801.641 696.182 808.849C662.725 833.434 627.312 855.24 590.3 874.05C481.193 928.562 354.542 953.022 233.469 933.846C229.238 933.16 221.834 932.321 218.03 931.154C220.72 930.621 233.976 931.837 237.553 931.922C251.51 932.255 265.719 933.03 279.685 932.861C326.933 932.174 373.948 926.12 419.828 914.813C447.259 908.312 474.297 900.249 500.809 890.665C619.268 846.537 730.512 766 812.809 670.371C838.239 640.43 862.046 609.148 884.127 576.658C897.58 556.333 910.58 535.713 923.117 514.81Z"/><path fill="#161E30" d="M625.945 152.708C647.912 150.578 678.831 156.511 699.215 164.833C696.423 167.113 695.459 168.201 693.361 171.036C688.195 169.24 683.782 167.992 678.381 167.059C631.39 158.941 593.687 168.211 555.06 194.5C542.756 203.427 524.6 217.981 513.567 228.098C511.377 223.517 509.69 219.667 507.971 214.89C516.563 206.785 525.809 199.783 534.539 192.076C562.112 167.734 588.993 155.692 625.945 152.708Z"/><path fill="#161E30" d="M636.839 175.217C655.946 174.462 669.261 175.666 687.893 179.997C686.294 183.015 685.881 184.545 685.492 187.918C684.117 187.731 682.741 187.555 681.363 187.391C630.704 181.358 591.057 197.267 552.037 227.888C543.044 235.059 534.744 242.608 526.209 250.319C523.825 246.114 521.242 241.804 519.33 237.382C537.888 219.437 568.978 195.09 592.691 185.236C606.728 179.405 621.659 176.017 636.839 175.217Z"/><path fill="#161E30" d="M843.592 229.909C846.195 234.636 852.686 252.593 853.801 258.123C855.271 265.407 854.996 277.61 855.156 285.175C856.151 332.29 839.117 371.05 812.682 409.179L808.826 406.666C805.252 404.078 801.706 401.453 798.187 398.792C801.745 394.808 805.728 389.746 808.859 385.446C836.939 346.49 850.374 298.876 846.798 250.987C846.383 245.184 844.551 235.977 843.592 229.909Z"/><path fill="#161E30" d="M866.642 288.865C867.471 293.694 867.729 303.798 867.975 308.945C870.056 352.431 858.255 388.669 834.284 424.521C832.234 423.407 829.733 421.63 827.745 420.303L820.457 414.924C824.457 411.406 829.534 403.372 832.391 398.708C847.13 375.084 857.42 348.961 862.751 321.631C864.038 314.831 864.716 308.186 865.304 301.309C865.644 297.328 865.769 292.678 866.642 288.865Z"/></svg>