<?xml version="1.0" encoding="utf-8" ?><svg xmlns="http://www.w3.org/2000/svg" xmlns:xlink="http://www.w3.org/1999/xlink" width="1024" height="1024" viewBox="0 0 1024 1024"><path fill="#3A273B" d="M0 0L1024 0L1024 1024L0 1024L0 0Z"/><path fill="#BEA2C1" d="M471.683 531.198C477.425 533.155 494.185 543.323 500.265 546.781C561.396 582.136 619.734 622.112 674.77 666.361C691.227 679.35 712.37 695.286 727.285 709.952C718.004 722.964 713.281 729.706 717.857 746.31L703.627 762.953C689.293 757.545 678.117 763.747 669.375 775.014C658.202 789.412 639.051 805.603 631.82 822.285C621.008 822.805 609.938 822.585 599.123 822.342C629.657 797.902 652.408 769.93 671.142 735.435C676.1 725.898 681.089 713.841 683.369 703.331C678.468 714.941 671.59 726.108 665.08 736.807C642.165 774.47 620.659 794.678 586.65 821.515C571.578 820.951 549.973 816.17 535.436 812.196C473.435 795.249 431.142 769.682 382.219 729.467C403.877 661.238 436.452 593.32 471.683 531.198Z"/><path fill="#311C35" d="M645.16 742.032C645.333 743.796 641.497 749.867 640.406 751.593C624.508 776.753 595.933 804.69 569.388 817.965C569.405 816.312 571.896 814.526 573.233 813.504C600.708 792.494 622.118 767.136 645.16 742.032Z"/><path fill="#BEA2C1" d="M264.39 297.32C269.502 298.131 277.5 300.561 282.707 301.849C297.426 305.49 311.795 310.038 326.241 314.609C411.162 341.603 493.071 377.289 570.665 421.1C587.405 430.482 603.707 439.393 619.942 449.668C645.511 465.772 670.35 483.007 694.385 501.322C706.143 510.23 717.376 519.797 729.176 528.615C728.274 530.143 727.211 532.125 727.449 533.916C728.898 544.822 731.579 556.113 733.561 566.932C735.824 579.884 738.187 592.818 740.651 605.732C741.825 612.194 742.779 619.076 744.318 625.396C753.38 635.072 761.224 637.123 773.788 638.664L774.621 648.789C763.849 653.347 757.007 666.149 749.782 675.85C746.2 673.243 740.871 668.458 737.338 665.462C597.53 541.664 433.696 448.025 256.07 390.394C243.457 386.384 229.035 382.863 216.095 379.127C225.208 354.634 247.773 317.431 264.39 297.32Z"/><path fill="#311C35" d="M457.08 391.425C473.156 389.414 487.825 400.798 489.868 416.87C491.911 432.942 480.557 447.634 464.489 449.71C448.375 451.791 433.632 440.397 431.583 424.279C429.534 408.161 440.958 393.441 457.08 391.425Z"/><path fill="#BEA2C1" d="M461.278 397.693C466.003 397.437 470.674 398.806 474.514 401.571C479.634 405.219 483.007 410.83 483.826 417.063C485.43 429.196 478.662 437.712 466.5 438.606C460.008 438.326 456.351 437.491 450.931 433.406C439.171 424.541 439.038 404.088 454.245 398.842C456.537 398.052 458.855 397.915 461.278 397.693Z"/><path fill="#311C35" d="M454.346 400.463L455.917 400.69C450.49 406.003 449.736 408.398 451.74 415.623C455.834 430.386 466.794 433.086 479.961 429.124C478.369 430.958 476.953 432.298 475.211 433.961C470.912 436.27 465.812 436.729 461.107 435.519C455.52 434.06 450.798 430.33 448.084 425.233C442.938 415.719 444.477 405.735 454.346 400.463Z"/><path fill="#311C35" d="M283.817 325.192C299.28 322.925 313.64 333.66 315.843 349.132C318.046 364.605 307.252 378.921 291.771 381.06C276.379 383.186 262.165 372.469 259.975 357.086C257.785 341.704 268.443 327.445 283.817 325.192Z"/><path fill="#BEA2C1" d="M285.516 331.486C297.056 329.537 307.978 337.353 309.858 348.905C311.737 360.457 303.857 371.332 292.294 373.143C280.828 374.938 270.064 367.138 268.2 355.683C266.336 344.228 274.072 333.417 285.516 331.486Z"/><path fill="#311C35" d="M279.656 337.43C281.022 337.863 280.847 337.58 281.732 338.455C281.107 339.114 278.737 341.539 278.559 342.202C276.282 350.695 280.12 360.828 288.688 364.064C292.401 365.466 296.504 364.709 300.089 366.282L300.259 367.03C298.819 368.469 297.022 368.797 295.026 369.445C290.732 370.367 287.621 370.748 283.313 369.351C278.307 367.75 274.21 364.108 272.033 359.325C268.224 350.966 270.802 341.103 279.656 337.43Z"/><path fill="#311C35" d="M634.432 487.021C649.771 484.985 663.88 495.706 666.027 511.03C668.174 526.354 657.555 540.54 642.247 542.798C626.781 545.079 612.417 534.327 610.248 518.845C608.079 503.363 618.935 489.077 634.432 487.021Z"/><path fill="#BEA2C1" d="M637.92 492.173C654.942 490.812 665.93 514.153 656.561 527.428C653.706 531.473 648.502 532.603 643.849 533.195C639.429 533.245 633.823 532.6 630.45 529.697C616.212 517.441 617.028 495.178 637.92 492.173Z"/><path fill="#311C35" d="M625.327 503.621C626.406 500.398 628.068 497.656 631.075 495.915L631.774 496.213L631.246 497.281C627.325 507.988 628.07 520.218 640.862 524.297C645.699 525.839 650.331 524.801 655.188 523.898L655.571 524.593C655.037 526.418 652.197 528.376 650.55 529.041C632.562 536.3 621.378 519.641 625.327 503.621Z"/><path fill="#3A273B" d="M625.327 503.621C626.406 500.398 628.068 497.656 631.075 495.915L631.774 496.213L631.246 497.281C629.686 499.042 627.462 503.218 625.995 504.032L625.327 503.621Z"/><path fill="#BEA2C1" d="M778.026 189.943C781.299 189.823 802.065 209.102 805.643 212.325C856.824 258.427 894.973 314.404 919.176 378.925C952.354 467.773 956.646 564.824 931.443 656.254C927.033 671.979 923.766 684.779 916.962 699.754C914.623 695.761 912.288 691.273 910.052 687.183C923.107 653.837 931.394 624.867 934.233 588.987C939.871 517.733 933.074 443.244 899.645 379.038C900.901 385.893 904.732 395.675 906.964 402.716C910.709 414.508 914.029 426.432 916.918 438.463C930.906 496.514 930.251 568.687 915.374 626.297C913.914 631.952 904.295 667.987 900.382 670.342C898.417 668.575 897.628 667.984 898.792 665.408C905.183 651.27 908.686 636.064 912.094 620.868C919.649 587.277 922.671 552.826 921.081 518.434C920.353 498.939 918.523 480.002 913.875 461.039C913.186 458.231 911.69 450.821 909.695 448.968L908.941 449.222C908.402 450.946 912.776 482.873 913.164 488.059C916.992 539.097 911.06 607.036 888.586 653.477C886.702 650.935 884.356 648.413 882.236 646.024C890.625 610.415 906.46 556.287 899.177 519.33C896.972 530.291 897.043 546.995 895.004 559.521C890.553 586.854 883.664 610.567 875.994 636.978C870.959 629.564 864.207 622.472 858.439 615.505C845.315 599.652 832.145 584.986 817.696 570.353C815.908 557.616 813.738 536.383 810.229 524.091C808.605 518.404 790.565 505.846 784.302 503.707C781.462 489.516 778.897 478.862 775.116 464.99C835.472 432.73 806.101 323.347 761.212 290.387C745.25 278.666 728.729 273.212 709.158 272.498C703.557 263.757 697.132 255.077 691.798 246.29C715.555 225.507 749.617 202.997 778.026 189.943Z"/><path fill="#BEA2C1" d="M848.941 899.975C868.78 876.602 898.284 856.42 930.114 856.643C899.242 865.784 886.021 874.455 865.899 900.744C867.735 900.766 869.73 900.744 871.547 900.859C887.001 884.262 902.38 875.048 925.296 871.144C909.153 879.054 895.444 886.362 883.42 900.538L895.206 901.015C904.546 891.815 927.286 887.649 939.991 886.919L940.025 887.696C928.847 889.599 912.535 895.687 902.497 901.436C931.831 903.666 990.791 910.757 1015.71 924.476C1006.2 927.631 992.624 929.343 982.55 930.548C966.073 932.431 949.553 933.923 933.005 935.021C868.42 939.135 803.728 941.341 739.013 941.636L675.985 942.435C668.959 942.491 653.011 941.974 646.761 942.583C644.475 942.995 640.99 942.705 639.407 943.846C653.362 946.467 726.513 955.291 733.561 965.279C734.988 977.043 666.651 982.476 658.159 983.401C626.998 986.795 593.85 986.561 562.63 986.19C548.311 986.02 475.245 983.328 467.161 976.137C468.709 973.702 485.76 972.468 489.455 972.093C502.509 970.671 515.61 969.71 528.732 969.212C570.341 967.443 610.084 967.704 651.573 967.508L652.498 966.122C622.586 962.763 592.593 960.903 562.752 956.714C548.161 955.079 533.326 951.67 518.65 951.422C502.759 951.153 486.533 954.237 470.748 955.845C450.134 957.797 429.473 959.218 408.786 960.106C372.822 961.716 336.827 962.549 300.827 962.603C258.531 962.78 216.303 961.784 174.064 959.178C163.694 958.538 154.239 956.42 144.025 955.517C161.044 947.637 196.727 944.822 215.594 942.362C213.25 940.666 200.945 941.89 197.274 942.054C198.364 941.54 202.61 941.267 204.151 941.066C161.681 940.224 118.894 940.558 76.4835 938.393C58.8921 937.495 32.9071 937.04 16.4421 932.177C31.95 920.04 93.0969 913.816 113.686 912.513C105.357 899.858 99.8409 900.418 87.7358 893.652C102.34 897.218 113.102 899.947 124.323 910.5C125.083 911.215 126.266 910.996 127.141 910.726C127.235 909.695 127.357 909.81 126.851 908.877C118.263 893.045 102.808 887.413 87.8149 881.57C118.974 880.263 140.287 909.39 143.314 909.514C143.605 908.379 143.767 908.335 143.234 907.003C136.605 890.43 121.558 875.396 106.641 866.088C104.269 864.609 99.4823 862.371 96.8658 860.972C125.316 867.245 144.549 885.986 160.466 909.256C156.465 892.601 147.176 878.029 135.181 865.965C131.57 862.332 126.773 859.595 123.321 855.858L124.063 856.209C147.364 867.445 163.708 884.77 172.116 909.304C185.56 909.998 198.631 910.481 211.247 915.13C199.65 901.544 196.129 901.724 181.583 893.359C192.545 894.977 200.554 898.087 210.138 903.475C214.118 905.712 221.175 913.953 224.236 914.074L224.569 913.222C223.499 909.512 220.532 906.366 218.314 903.329C206.475 887.116 197.108 882.525 181.1 872.761C207.105 880.279 221.887 891.74 235.234 915.04L315.603 923.296C309.416 914.345 297.044 908.877 287.108 905.333C302.32 906.76 307.428 910.25 320.062 918.294C314.151 911.598 306.815 903.485 298.742 899.586C295.093 897.823 290.932 897.113 287.147 895.12C287.499 895.16 287.851 895.204 288.202 895.251C309.549 898.162 318.261 907.289 330.268 923.231L330.894 922.663C330.612 917.607 323.225 905.962 320.321 901.889C330.006 908.027 335.819 914.005 343.038 922.693C348.673 914.082 359.143 906.592 368.294 902.15C363.057 906.351 354.567 914.47 352.92 921.219L353.407 921.599C357.411 920.419 364.197 913.817 368.085 911.087C372.496 907.991 373.909 906.894 378.908 904.477C372.383 910.168 370.012 912.418 364.692 919.502C386.803 919.006 414.901 919.362 436.872 920.26C425.119 907.191 421.759 907.372 406.913 899.256C419.758 903.182 434.413 911.473 444.336 920.485L451.432 920.368C446.691 910.161 432.425 898.123 422.685 892.51C419.21 890.508 413.895 888.357 410.069 886.778C425.82 889.918 440.393 896.702 452.6 907.23C456.238 910.369 463.66 921.895 468.285 919.982C468.213 918.262 465.253 913.825 464.307 912.155C456.012 897.511 446.594 887.945 432.348 879.091C438.727 881.058 443.177 883.919 448.708 887.346C464.516 897.14 471.224 905.838 481.521 920.632C490.62 909.937 499.513 896.455 506.407 884.187C504.864 889.647 501.573 896.372 499.612 901.93C497.478 907.977 495.643 914.051 493.456 920.05C495.908 919.756 498.545 919.607 501.022 919.421C519.221 896.93 528.336 884.735 558.336 876.164L558.67 877.247C545.745 881.381 524.176 902.184 517.737 914.513C517.032 915.864 515.485 918.53 515.93 919.896C520.411 920.33 528.293 909.984 532.004 907.021C544.177 897.301 558.62 889.533 573.821 885.985L573.41 886.231C569.815 888.337 565.723 889.816 561.951 891.909C549.872 898.609 541.629 906.8 534.613 918.552C536.928 918.409 539.639 918.327 541.895 917.943C550.365 907.216 569.231 899.46 582.086 896.031C570.006 902.383 559.247 907.587 549.914 918.011C587.207 917.669 626.943 913.107 664.306 912.287C676.35 892.644 686.362 880.435 708.159 870.394C713.425 867.968 718.765 865.498 724.467 864.089C725.815 863.762 727.171 863.47 728.533 863.211C723.528 865.41 717.307 867.971 712.828 870.977C698.907 880.322 682.539 894.882 677.38 911.334C687.932 898.659 692.337 890.932 707.688 881.902C699.191 890.428 691.738 898.704 688.162 910.477C692.21 907.714 694.803 903.854 698.103 900.24C705.28 892.381 714.426 884.181 724.195 879.721C724.162 880.148 724.066 881.012 724.094 881.403C716.357 887.649 705.003 899.336 700.654 908.15C729.358 905.576 762.296 904.351 791.361 902.788C798.54 892.362 805.915 886.18 816.988 880.019L817.443 880.267C808.942 886.217 801.335 893.231 796.226 902.376C801.31 901.89 806.409 901.569 811.513 901.411C819.911 888.059 844.73 870.889 860.079 867.128C839.378 877.534 834.664 883.443 820.128 901.175C828.933 900.278 840.001 900.026 848.941 899.975Z"/><path fill="#311C35" d="M204.151 941.066C210.355 940.97 216.56 940.941 222.765 940.981L221.467 942.091C219.297 942.081 217.759 942.173 215.594 942.362C213.25 940.666 200.945 941.89 197.274 942.054C198.364 941.54 202.61 941.267 204.151 941.066Z"/><path fill="#311C35" d="M631.986 942.601C636.846 942.419 641.885 942.539 646.761 942.583C644.475 942.995 640.99 942.705 639.407 943.846C636.271 943.582 635.011 943.31 631.986 942.601Z"/><path fill="#3A273B" d="M652.498 966.122C653.862 966.286 656.694 966.402 657.595 967.071C655.065 967.587 654.181 967.545 651.573 967.508L652.498 966.122Z"/><path fill="#765F76" d="M222.765 940.981C224.342 940.95 226.5 940.72 227.83 941.355C225.838 942.141 223.654 942.016 221.467 942.091L222.765 940.981Z"/><path fill="#BEA2C1" d="M453.772 91.1478C459.4 90.2485 475.706 105.381 480.762 109.415C491.938 118.331 502.878 127.744 513.788 137.007C522.454 144.365 530.434 153.669 540.529 158.855C548.703 162.859 564.454 155.387 572.51 151.989C565.601 160.163 551.659 172.608 543.78 179.892C534.685 188.408 525.799 197.143 517.129 206.09C484.859 239.183 457.429 274.201 430.549 311.691C416.473 307.364 398.417 299.028 383.866 293.932C347.349 280.911 309.97 270.448 271.999 262.619C277.555 254.197 291.156 238.112 298.312 231.325C286.406 237.837 276.384 252.118 266.989 261.688L258.937 259.667C275.069 240.016 291.171 222.007 311.199 206.172C319.435 199.659 327.462 192.879 335.829 186.514C328.31 189.715 319.767 195.354 313.062 200.095C290.125 216.05 269.949 235.644 253.33 258.104C250.979 257.639 248.623 257.205 246.26 256.802C261.891 232.803 293.629 204.954 316.606 187.964C331.82 176.714 351.818 165.25 368.291 155.531C360.105 157.592 351.851 161.806 344.259 165.571C302.09 187.013 265.246 217.61 236.424 255.124L232.189 254.349L231.664 253.554L232.439 252.088C236.605 245.622 243.034 238.62 247.925 232.623C272.537 202.444 302.302 181.344 333.463 158.527C301.6 171.703 265.833 201.718 241.975 226.325C236.489 232.015 231.039 237.739 225.626 243.499C223.202 246.094 220.275 249.491 217.624 251.873C217.12 252.326 216.853 252.075 215.979 251.917L215.665 251.228C216.56 247.358 229.52 233.452 232.867 229.694C272.742 185.552 322.366 151.322 377.794 129.727C389.315 125.086 401.111 121.161 413.117 117.976C419.343 116.32 429.359 114.299 434.988 112.165L435.676 111.899C434.975 111.89 434.274 111.894 433.574 111.912C415.099 112.269 392.979 118.425 375.514 124.598C330.889 140.204 289.335 163.488 252.725 193.399C229.471 212.744 215.361 229.047 195.225 249.996C189.269 250.004 183.313 250.065 177.357 250.181C177.779 249.529 178.213 248.885 178.66 248.25C187.346 235.841 201.459 221.576 212.04 210.873C279.561 142.579 360.371 108.175 453.772 91.1478Z"/><path fill="#BEA2C1" d="M359.105 476.353C388.048 489.223 417.066 501.693 445.113 516.667C443.235 521.086 435.864 533.394 433.152 538.366C426.065 551.584 419.111 564.873 412.292 578.231C395.184 611.721 379.878 646.101 366.44 681.225C343.679 667.613 326.089 650.593 305.817 634.914C318.352 652.011 341.564 671.294 359.901 682.093L364.654 685.041L361.374 692.985C348.297 686.249 326.167 666.896 314.989 656.336C324.761 673.058 342.58 688.271 358.895 698.373C357.244 703.263 356.028 706.541 353.961 711.289C344.047 704.04 325.031 685.011 316.028 675.615C314.34 673.854 306.175 656.909 304.626 653.788C298.907 642.315 293.127 630.873 287.286 619.462C294.612 600.805 303.136 583.651 311.854 565.693C326.382 535.283 342.145 505.478 359.105 476.353Z"/><path fill="#3A273B" d="M364.689 523.566C405.562 520.296 412.094 578.591 367.906 589.656C367.55 599.956 365.999 621.854 356.768 628.111C354.717 628.401 355.459 628.388 353.316 627.358C344.16 622.447 327.928 615.025 320.031 609.414C323.847 594.625 330.63 587.321 340.203 575.745C335.12 562.526 334.09 551.567 341.993 538.95C347.461 530.22 354.733 525.772 364.689 523.566Z"/><path fill="#BEA2C1" d="M364.687 528.122C391.373 525.978 401.585 552.323 387.756 572.41C385.742 575.334 383.559 577.313 380.94 579.713C386.482 571.057 387.968 565.185 383.585 555.482C374.662 541.987 355.586 539.164 344.1 551.554C342.232 553.568 341.097 556.484 339.959 559.003C341.687 543.842 348.226 531.072 364.687 528.122Z"/><path fill="#BEA2C1" d="M577.265 194.335C578.807 195.489 581.426 201.266 583.116 203.243C598.268 220.963 609.927 241.395 624.604 259.355C625.64 260.624 629.27 261.75 630.917 262.323C625.879 268.103 619.366 274.525 614.036 280.238C606.413 288.558 598.907 296.986 591.522 305.518C575.477 323.974 559.419 345.108 544.716 364.796C538.72 362.152 532.525 358.803 526.665 355.773C516.025 350.315 505.269 345.085 494.406 340.087C485.397 335.967 473.228 330.824 464.901 326.161C481.299 301.55 499.104 279.193 518.802 257.192C526.303 248.814 533.242 240.291 541 231.993C552.952 219.209 565.41 207.192 577.265 194.335Z"/><path fill="#311C35" d="M556.263 245.512C565.692 244.08 575.16 247.846 581.028 255.365C586.896 262.883 588.251 272.982 584.571 281.781C580.892 290.58 572.752 296.709 563.278 297.812C548.98 299.477 535.986 289.376 534.072 275.109C532.158 260.842 542.031 247.674 556.263 245.512Z"/><path fill="#BEA2C1" d="M556.496 250.563C566.69 249.957 575.906 252.801 580.631 262.755C582.798 267.311 582.954 272.568 581.062 277.245C578.556 283.389 573.71 286.275 568.019 288.793C543.249 294.254 529.829 258.061 556.496 250.563Z"/><path fill="#311C35" d="M552.771 253.884L553.731 253.971C554.949 255.332 549.07 261.451 550.051 265.793C551.137 270.605 551.641 272.378 555.676 275.731C560.999 280.153 571.094 282.632 575.522 275.85C576.251 274.714 577.361 273.558 578.318 272.592L578.655 272.258C577.276 276.562 576.849 277.811 574.326 281.435C573.334 282.429 572.163 283.615 571.021 284.413C567.804 286.636 563.84 287.499 559.99 286.816C550.044 285.067 542.244 273.527 544.587 263.5C545.716 258.667 548.749 256.327 552.771 253.884Z"/><path fill="#BEA2C1" d="M164.826 260.223C165.004 260.216 165.182 260.208 165.36 260.203C190.839 259.55 216.295 263.211 241.349 267.374C342.774 284.229 440.75 323.762 532.057 370.129C589.182 399.139 641.475 429.121 693.392 466.863C704.688 475.058 715.827 483.467 726.802 492.087C732.489 496.479 740.708 502.486 745.745 507.304C739.869 513.601 737.363 517.212 732.756 524.298C729.259 521.502 725.738 518.511 722.279 515.648C707.451 503.041 688.593 488.884 672.609 477.576C627.715 446.218 580.804 417.85 532.182 392.657C516.8 384.78 501.574 377.734 485.975 370.451C472.759 364.281 460.519 358.154 447.02 352.272C405.631 334.135 363.147 318.605 319.818 305.773C271.699 291.125 184.083 267.547 134.606 276.028C144.148 259.886 147.28 260.833 164.826 260.223Z"/><path fill="#BEA2C1" d="M819.002 621.888C823.16 624.885 834.929 639.333 838.548 643.759C859.349 669.196 877.607 696.13 893.411 724.964C898.09 733.499 903.015 742.418 906.929 751.379C896.79 773.941 884.684 795.425 871.135 816.076C869.821 818.079 865.587 825.236 863.995 826.009L863.203 825.318C843.985 790.074 829.467 768.319 802.414 738.25C807.589 731.201 813.977 721.57 819.529 715.068C842.564 688.087 844.387 670.343 809.122 653.621C808.618 647.72 808.23 642.309 807.571 636.382C810.967 632.671 815.789 626.066 819.002 621.888Z"/><path fill="#311C35" d="M854.467 711.586C859.976 711.151 865.101 711.368 870.169 713.942C882.04 719.97 890.141 737.325 883.524 749.73C878.99 758.228 872.635 761.633 863.994 764.303C828.106 773.179 821.283 720.744 854.467 711.586Z"/><path fill="#BEA2C1" d="M848.801 720.671C863.382 706.622 893.071 735.487 874.077 751.944C873.469 752.464 872.846 752.968 872.21 753.455C869.561 755.031 868.234 755.901 865.111 756.557C848.745 766.604 835.86 746.735 842.101 729.852C843.593 725.88 845.45 723.196 848.801 720.671Z"/><path fill="#311C35" d="M848.215 724.719C853.516 720.509 855.105 720.309 861.932 719.677C857.964 721.753 854.702 723.796 853.628 728.422C850.808 740.565 858.356 747.967 869.321 749.701L869.052 750.881C870.35 751.83 871.018 752.32 872.21 753.455C869.561 755.031 868.234 755.901 865.111 756.557C848.745 766.604 835.86 746.735 842.101 729.852C843.593 725.88 845.45 723.196 848.801 720.671C847.908 723.531 844.49 724.593 843.969 728.941L844.565 729.321C845.697 728.405 846.488 726.216 847.539 724.667L848.215 724.719Z"/><path fill="#311C35" d="M842.101 729.852L843.673 730.478C844.238 733.398 843.715 735.482 844.009 738.234C845.14 748.832 854.146 754.618 863.668 756.202L865.111 756.557C848.745 766.604 835.86 746.735 842.101 729.852Z"/><path fill="#B29BAD" d="M842.101 729.852L843.673 730.478C841.242 734.439 840.701 739.711 841.802 744.187C843.087 749.281 846.39 753.633 850.95 756.242C853.942 757.924 861.669 759.965 863.668 756.202L865.111 756.557C848.745 766.604 835.86 746.735 842.101 729.852Z"/><path fill="#D8BCD5" d="M848.801 720.671C847.908 723.531 844.49 724.593 843.969 728.941L844.565 729.321C845.697 728.405 846.488 726.216 847.539 724.667L848.215 724.719C840.762 739.695 851.602 755.906 869.052 750.881C870.35 751.83 871.018 752.32 872.21 753.455C869.561 755.031 868.234 755.901 865.111 756.557L863.668 756.202C854.146 754.618 845.14 748.832 844.009 738.234C843.715 735.482 844.238 733.398 843.673 730.478L842.101 729.852C843.593 725.88 845.45 723.196 848.801 720.671Z"/><path fill="#BEA2C1" d="M99.6926 369.209C125.314 366.739 152.444 372.401 177.498 376.587C195.992 379.676 213.266 384.416 231.305 389.422C271.019 400.659 310.02 414.284 348.092 430.221C467.633 478.754 579.403 544.569 679.829 625.563C701.461 642.732 726.652 661.929 746.675 681.151C744.622 684.186 742.555 687.585 740.576 690.699C737.918 688.496 735.142 685.953 732.533 683.654C708.418 661.816 676.695 636.622 650.736 617.027C625.246 597.453 599.008 578.872 572.082 561.325C519.933 527.441 465.656 496.952 409.587 470.047C335.622 434.69 157.988 366.752 79.1726 383.675C84.454 368.617 84.118 369.928 99.6926 369.209Z"/><path fill="#BEA2C1" d="M659.717 270.065C662.291 272.59 669.517 285.103 671.636 288.66C660.404 296.748 652.672 314.097 650.292 327.566C641.516 377.231 662.604 431.232 704.941 459.367C715.417 466.329 726.226 469.551 738.466 471.766L743.567 490.104C735.72 482.75 713.669 466.938 704.245 460.713C694.018 453.919 683.944 446.018 673.746 439.414C639.659 417.338 604.09 395.307 567.932 376.757C590.532 343.345 618.116 312.357 645.924 283.183C650.329 278.562 654.61 273.93 659.717 270.065Z"/><path fill="#BEA2C1" d="M215.292 427.932C220.356 429.305 225.39 430.786 230.412 432.305C260.6 441.439 290.493 450.632 320.239 461.125C316.503 470.691 309.659 482.394 304.749 491.568C297.365 505.305 290.285 519.202 283.512 533.25C277.734 545.383 271.837 558.872 265.816 570.681C260.942 562.916 254.558 548.672 250.632 540.231C232.943 502.201 222.446 469.007 215.292 427.932Z"/><path fill="#BEA2C1" d="M335.98 467.28C341.367 468.958 348.94 472.446 354.203 474.734C350.42 480.462 346.423 487.692 342.92 493.707C331.328 513.805 320.42 534.289 310.214 555.125C267.883 640.682 232.639 729.532 212.131 823.005C209.494 835.025 205.973 849.948 204.107 861.883C203.982 863.144 203.768 864.301 203.562 865.549L203.098 865.828C198.433 861.598 195.636 859.209 190.334 855.803C192.178 845.428 194.564 835.019 196.77 824.705C199.122 813.711 201.159 802.482 203.838 791.583C217.868 736.771 235.682 682.998 257.154 630.652C270.965 596.453 284.64 564.286 301.584 531.404C312.703 509.827 323.396 488.132 335.98 467.28Z"/><path fill="#BEA2C1" d="M730.261 318.115C753.252 328.7 769.388 365.646 771.314 389.553C772.333 402.206 771.403 412.076 765.361 423.216C758.624 411.864 751.042 401.726 735.96 409.586C731.432 411.946 729.361 415.058 727.667 419.745C727.12 422.137 727.375 422.711 725.762 423.731C724.956 423.645 724.688 423.567 723.962 423.176C695.779 407.988 675.236 349.604 691.976 321.658C704.227 338.981 722.905 339.779 730.261 318.115Z"/><path fill="#BEA2C1" d="M91.2022 407.48L101.397 408.787C99.1662 420.347 94.9554 433.796 92.2805 445.863C86.9643 470.401 83.7218 495.343 82.5874 520.425C77.4954 631.303 112.199 736.91 187.375 819.33C186.614 823.404 185.276 828.305 184.275 832.393L183.764 832.994C180.609 831.705 172.981 822.838 170.438 819.905C143.704 788.689 121.913 753.559 105.825 715.74C72.1772 638.469 63.1436 554.169 76.0031 471.112C78.7746 453.211 84.5692 424.329 91.2022 407.48Z"/><path fill="#BEA2C1" d="M450.009 518.755C452.78 520.536 456.64 522.545 459.717 524.456C420.647 590.563 391.12 660.681 365.83 733.019C351.906 771.963 339.885 811.562 329.809 851.675C325.923 867.7 321.075 883.237 318.796 899.513C315.716 895.872 312.978 894.74 308.792 892.473C311.789 871.809 319.392 845.931 325.028 825.68C348.958 736.776 381.845 650.528 423.184 568.262C428.667 557.488 434.335 546.809 440.185 536.23C443.205 530.692 446.678 523.913 450.009 518.755Z"/><path fill="#BEA2C1" d="M584.196 159.916L584.64 160.263C583.002 162.877 580.567 165.132 579.457 167.913C576.409 175.547 575.733 180.445 576.054 188.526C570.029 195.09 561.39 202.783 554.788 209.59C537.325 227.527 520.451 246.028 504.195 265.066C492.464 278.838 481.804 293.542 470.949 308.006C466.785 313.555 463 319.449 458.757 324.934L448.72 320.477L443.244 317.779C449.774 305.958 460.896 293.213 469.124 282.422C503.01 237.984 541.216 195.807 584.196 159.916Z"/><path fill="#BEA2C1" d="M703.16 132.066C707.72 133.278 714.712 137.212 719.014 139.442C735.078 147.767 750.107 157.415 765.282 167.229C746.258 175.226 728.425 183.513 711.51 195.461C704.658 200.3 697.959 206.218 691.223 211.37C687.674 203.859 682.723 197.618 677.781 190.987L678.063 190.662C679.612 191.294 681.188 191.854 682.789 192.339C706.474 199.562 716.797 175.314 705.049 158.353C692.564 140.327 665.581 141.636 661.361 166.252C658.375 161.738 654.458 157.742 650.89 153.595C664.874 141.937 686 136.656 703.16 132.066Z"/><path fill="#BEA2C1" d="M820.034 587.318C823.114 588.911 842.529 611.169 846.081 615.588C870.281 645.694 895.222 676.975 911.302 712.322C916.202 723.091 917.213 728.529 912.733 739.625L910.471 744.25C907.013 735.806 900.179 723.743 895.678 715.814C882.822 692.956 868.176 671.152 851.877 650.607C842.73 638.994 833.24 628.352 823.9 617.008C822.89 606.765 821.8 597.452 820.034 587.318Z"/><path fill="#BEA2C1" d="M713.754 280.877C717.57 281.058 721.364 281.559 725.096 282.375C746.796 287.254 765.626 300.647 777.355 319.544C792.895 344.291 806.61 387.055 799.705 415.724C795.309 433.974 785.948 444.942 770.283 454.527C772.608 451.026 777.032 448.7 780.138 445.827C790.962 435.818 795.501 424.655 798.78 410.881C799.668 405.86 800.32 396.546 798.772 391.798C797.164 412.703 789.337 434.64 771.079 446.664C770.018 441.534 769.082 436.379 768.27 431.204C779.585 416.71 785.873 405.355 787.044 386.045C788.914 355.195 759.784 298.292 724.338 298.533C720.952 292.564 717.423 286.677 713.754 280.877Z"/><path fill="#BEA2C1" d="M676.992 293.561C681.401 299.862 684.116 304.631 687.658 311.473C676.32 332.104 677.295 353.663 683.405 376.127C689.012 396.739 701.414 417.985 720.39 428.939C726.129 432.252 733.722 434.446 740.16 436.31C741.274 440.603 742.436 445.566 743.81 449.73C697.644 446.04 669.282 399.109 665.159 357.886C664.823 354.525 664.579 350.634 664.062 347.409C663.923 333.584 665.179 320.1 670.412 307.191C672.28 302.581 675.37 298.271 676.992 293.561Z"/><path fill="#BEA2C1" d="M773.657 768.595C775.777 769.72 798.467 800.076 801.693 804.312C787.587 811.083 764.797 815.612 749.376 818.641C743.025 819.905 736.658 821.196 730.203 821.696C740.785 810.817 743.988 798.665 733.735 785.932C737.131 781.117 742.877 774.925 746.867 770.247C755.811 774.09 765.222 773.157 773.657 768.595Z"/><path fill="#BEA2C1" d="M735.943 418.987C745.482 409.428 754.325 413.283 757.814 425.513C763.182 444.328 767.478 463.244 772.027 482.262C777.041 503.225 781.603 523.76 785.78 544.894C780.606 545.438 777.748 545.72 772.827 547.512C769.141 530.233 749.455 428.131 740.942 422.078C739.612 421.132 737.991 420.665 736.436 420.249L735.943 418.987Z"/><path fill="#BEA2C1" d="M655.58 211.359C664.494 215.497 712.367 294.998 720.997 308.318C719.359 310.393 713.976 317.603 711.233 315.317C707.278 307.918 698.568 295.121 693.662 287.636C679.033 265.314 661.077 237.417 643.818 217.191C648.128 215.649 651.599 213.572 655.58 211.359Z"/><path fill="#BEA2C1" d="M167.5 301.65C196.145 299.18 196.789 340.222 167.747 344.952C162.757 345.182 158.144 344.644 153.852 341.868C149.694 339.137 146.822 334.835 145.893 329.948C143.033 315.394 153.484 304.022 167.5 301.65Z"/><path fill="#311C35" d="M152.892 310.932C153.185 311.274 153.368 311.334 153.274 311.79C151.176 321.998 153.63 336.547 166.239 337.817C167.931 337.987 170.443 337.834 171.921 338.626C171.33 339.965 169.95 340.541 168.629 341.357C148.36 343.583 143.171 325.832 152.892 310.932Z"/><path fill="#311C35" d="M158.65 323.288C159.195 323.785 160.913 327.574 161.756 328.798C166.947 336.334 172.242 331.724 177.565 332.507L176.367 333.939C167.881 340.974 154.722 332.547 158.65 323.288Z"/><path fill="#BEA2C1" d="M809.935 663.682C823.275 670.049 834.631 679.24 823.639 695.012C818.132 702.915 811.937 710.579 806.147 718.296C796.009 731.807 785.884 745.863 774.043 757.9C771.472 760.481 766.712 761.441 763.235 762.131C759.217 762.628 756.591 762.368 752.65 761.811C754.643 759.183 759.843 751.634 762.492 750.616C763.774 750.973 765.23 751.511 766.509 750.882C768.716 749.798 808.138 698.063 811.965 692.677C813.469 690.562 814.964 688.228 815.944 685.817C816.582 684.248 816.582 682.88 815.871 681.304C814.723 678.763 811.811 677.55 809.379 676.67C809.648 672.345 809.833 668.015 809.935 663.682Z"/><path fill="#BEA2C1" d="M757.031 727.467C760.177 727.421 766.231 729.09 766.271 733.564C766.286 735.126 763.193 738.491 762.054 739.88C752.476 751.57 742.016 762.527 732.126 773.94L713.18 795.862C709.805 799.744 705.802 804.635 702.119 808.115C696.981 805.833 695.486 803.953 691.834 799.844C693.985 796.528 698.705 791.499 701.48 788.398L718.796 769.15C726.76 760.222 749.047 732.618 757.031 727.467Z"/><path fill="#BEA2C1" d="M788.652 582.496C791.673 582.841 794.899 598.272 795.41 601.299C799.584 626.01 805.022 651.346 803.006 676.504C802.752 679.672 802.655 684.218 800.862 686.882C799.304 687.726 797.348 687.49 795.51 687.473L792.313 686.769C792.024 686.498 791.734 686.227 791.444 685.955C790.853 681.107 791.922 672.271 791.663 667.759C790.697 650.88 787.83 635.19 784.973 618.634C783.102 607.79 782.278 596.303 780.383 585.36C783.057 584.373 785.943 583.433 788.652 582.496Z"/><path fill="#BEA2C1" d="M728.336 791.786C729.866 792.961 730.731 795.704 731.49 797.551C731.306 799.145 730.984 801.19 730.609 802.758C730.004 805.335 728.914 807.773 727.396 809.941C719.881 820.855 678.184 865.44 668.044 871.335C663.915 873.735 660.353 873.928 655.816 872.753C653.433 871.45 652.993 871.095 650.983 869.254C671.045 853.479 686.507 838.383 703.814 819.578C712.977 809.622 720.601 804.05 728.336 791.786Z"/><path fill="#BEA2C1" d="M798.482 743.367C801.577 745.451 807.809 753.897 810.493 757.095C825.886 775.438 839.597 795.012 851.442 815.827C854.345 820.929 857.443 826.424 860.882 831.154C858.597 834.397 856.803 836.654 854.241 839.696C852.743 838.617 840.311 816.721 838.234 813.366C824.462 791.115 808.733 771.382 791.74 751.548C793.757 748.912 796.334 745.958 798.482 743.367Z"/><path fill="#BEA2C1" d="M777.966 657.116C778.688 657.01 781.02 656.45 782.286 657.396C784.88 659.333 786.271 666.62 785.656 669.575C785.652 669.597 781.572 671.09 781.104 671.54C779.119 673.575 777.398 676.335 775.779 678.748C762.025 699.243 747.743 718.238 731.377 736.756C730.189 738.36 729.936 739.191 728.012 739.005C721.393 730.707 739.466 708.042 744.921 701.534C751.811 693.314 770.645 660.519 777.966 657.116Z"/><path fill="#311C35" d="M731.291 726.894C731.975 727.609 731.995 727.836 732.219 728.972C732.791 731.849 732.133 734.834 730.405 737.204C727.823 734.608 729.82 729.555 731.291 726.894Z"/><path fill="#BEA2C1" d="M558.538 106.428C558.811 106.415 559.083 106.385 559.356 106.391C565.26 106.516 587.117 129.634 591.902 134.578C596.97 139.816 622.54 166.752 622.235 172.966C622.132 175.07 621.111 177.376 619.465 178.723C618.705 179.345 617.728 179.707 616.756 179.524C614.131 179.03 611.151 174.269 609.482 172.188C596.721 156.003 567.455 122.258 549.587 112.962C547.321 116.418 547.179 117.5 546.083 121.529L545.435 121.605C543.337 114.071 552.917 108.785 558.538 106.428Z"/><path fill="#BEA2C1" d="M625.278 147.611C630.045 147.366 634.475 147.498 638.03 151.326C644.333 158.114 649.286 166.251 654.685 173.803L682.066 211.607C681.041 218.109 680.165 223.387 678.639 229.784L675.33 226.512C669.293 219.914 670.669 215.145 666.832 208.121C663.165 201.405 634.826 163.523 630.15 160.851C627.217 159.175 624.71 159.889 621.672 160.802C619.275 157.658 615.966 154.717 617.253 150.698C619.559 148.409 622.082 148.251 625.278 147.611Z"/><path fill="#BEA2C1" d="M657.791 838.512C661.044 838.317 667.141 839.414 668.178 842.97C665.903 845.913 660.805 850.671 657.947 853.472C652.211 859.081 646.508 864.725 640.839 870.403C632.658 878.63 624.638 888.283 616.18 895.984C609.943 895.946 605.928 896.064 600.128 898.288C597.964 899.402 593.697 902.679 591.444 904.25C593.116 901.876 595.062 899.763 597.041 897.618C613.523 879.742 630.732 862.336 648.157 845.383C650.959 842.657 654.346 840.304 657.791 838.512Z"/><path fill="#BEA2C1" d="M754.177 517.918L754.732 518.142C758.565 524.792 754.028 532.096 754.988 538.507C756.711 550.011 767.16 614.96 774.157 620.419L777.45 622.956C775.252 622.232 773.06 621.49 770.874 620.731C767.072 619.059 762.048 616.73 758.702 614.401C756.247 606.284 743.327 531.902 744.12 526.221C744.545 523.177 751.611 519.731 754.177 517.918Z"/><path fill="#BEA2C1" d="M132.323 283.057C137.039 283.201 141.387 283.121 146.089 283.023C139.793 293.108 132.389 303.095 126.228 313.144C116.866 328.415 107.491 346.276 100.957 362.926C96.56 363.211 92.4108 363.424 88.0435 364.093C101.955 333.438 113.811 311.388 132.323 283.057Z"/><path fill="#BEA2C1" d="M648.807 263.812C648.768 264.928 634.099 279.091 632.138 281.112C605.22 308.858 578.582 338.484 557.476 370.941L551.716 368.616C550.556 368.068 550.906 368.355 550.126 367.289C576.969 333.048 605.972 294.106 637.779 264.297C641.503 264.257 645.089 264.031 648.807 263.812Z"/><path fill="#BEA2C1" d="M785.618 513.644C787.529 514.422 789.297 515.261 791.015 516.413C795.063 519.126 801.314 523.869 803.436 528.339C805.344 532.356 809.284 570.571 810.324 578.469C811.847 589.992 813.625 601.479 815.658 612.923L811.55 618.815C810.045 621.017 809.226 622.273 807.358 624.245C805.298 605.313 802.731 586.573 799.743 567.768C798.299 558.682 796.492 539.184 793.698 530.806C792.127 529.19 790.128 527.711 788.346 526.297C787.304 522.78 786.371 517.362 785.618 513.644Z"/><path fill="#BEA2C1" d="M588.022 100.019C593.404 100.708 599.98 102.46 605.39 103.543C621.063 106.68 636.05 110.876 651.353 115.403L633.543 121.466C623.691 125.136 613.625 129.738 603.966 133.99C600.294 131.29 597.601 128.73 594.433 125.49C602.036 112.929 598.383 108.829 588.022 100.019Z"/><path fill="#BEA2C1" d="M822.329 830.889C824.428 833.141 825.844 836.068 827.063 838.857C811.577 860.834 761.998 899.04 735.117 903.966C733.707 904.232 732.834 904.55 731.477 904.109C731.957 903.266 731.744 903.388 732.499 902.92C745.571 894.823 759.686 886.532 771.866 877.085C789.139 863.688 808.07 847.484 822.329 830.889Z"/><path fill="#BEA2C1" d="M640.96 834.039C640.67 832.792 640.504 831.52 640.463 830.241C640.159 816.481 667.629 793.078 676.139 781.96C682.559 773.573 689.66 773.213 699.703 773.058C693.289 779.625 649.926 832.273 645.573 833.48L645.114 834.678L642.745 835.331C642.977 836.411 642.997 835.869 642.665 836.954C641.498 836.135 641.425 835.404 640.96 834.039Z"/><path fill="#311C35" d="M642.086 829.469C642.633 827.021 642.789 825.611 644.477 823.807L645.114 824.169C645.748 828.032 645.249 829.865 645.573 833.48L645.114 834.678L642.745 835.331C642.977 836.411 642.997 835.869 642.665 836.954C641.498 836.135 641.425 835.404 640.96 834.039C640.893 832.367 640.681 830.952 641.213 829.386L642.086 829.469Z"/><path fill="#E5D3DC" d="M640.96 834.039C640.893 832.367 640.681 830.952 641.213 829.386L642.086 829.469C642.249 831.502 642.343 833.324 642.745 835.331C642.977 836.411 642.997 835.869 642.665 836.954C641.498 836.135 641.425 835.404 640.96 834.039Z"/><path fill="#BEA2C1" d="M770.421 170.984C773.027 172.438 774.536 174.846 776.204 177.231C768.468 180.763 759.142 184.616 751.798 188.836C730.278 201.199 706.565 217.522 688.314 234.316L684.514 237.48C687.044 231.061 687.528 228.044 689.333 221.542C692.465 218.287 700.735 212.427 704.59 209.699C723.544 196.284 748.824 179.514 770.421 170.984Z"/><path fill="#BEA2C1" d="M479.685 89.0851C486.283 89.2801 494.18 90.2365 500.225 93.0477C503.73 94.6781 506.929 97.3117 509.947 99.6916C514.801 103.52 556.079 138.17 556.736 140.121L555.567 141.318C545.172 146.26 541.726 142.007 534.035 135.113C516.226 119.15 499.35 102.818 479.685 89.0851Z"/><path fill="#BEA2C1" d="M626.092 136.782C634.286 134.217 641.68 130.599 649.669 127.557C658.683 124.123 667.948 121.23 677.034 117.987C683.943 120.875 690.855 123.659 697.11 127.841C676.615 133.549 665.046 137.632 646.399 148.138C641.087 142.738 637.766 139.079 629.971 137.647C628.329 137.232 628.367 137.815 626.092 136.782Z"/><defs><linearGradient id="gradient_0" gradientUnits="userSpaceOnUse" x1="691.36475" y1="154.49292" x2="681.7066" y2="182.35852"><stop offset="0" stop-color="#B99ABD"/><stop offset="1" stop-color="#CFB6CE"/></linearGradient></defs><path fill="url(#gradient_0)" d="M683.209 152.165C687.226 152.393 689.813 152.752 693.372 154.944C698.021 157.832 701.294 162.488 702.439 167.84C704.424 176.91 700.252 184.295 690.858 185.901C672.821 183.557 658.926 155.577 683.209 152.165Z"/><path fill="#311C35" d="M678.95 157.292C680.615 157.676 681.192 157.903 681.51 159.451C679.948 161.674 678.015 163.634 678.635 166.48C679.486 170.379 682.605 173.475 685.765 175.62C691.148 179.275 693.136 178.852 698.989 177.625C698.907 178.947 698.188 179.345 697.162 180.628C683.392 189.067 663.393 166.799 678.95 157.292Z"/><path fill="#BEA2C1" d="M249.82 294.028C253.314 294.652 256.89 295.461 260.371 296.204C241.326 318.098 224.9 350.138 213.986 377.11C213.629 377.864 213.725 377.614 212.977 378.189C210.492 378.082 207.435 377.081 204.97 376.41C217.76 343.745 230.039 323.101 249.82 294.028Z"/><path fill="#BEA2C1" d="M593.979 166.201C596.084 166.845 599.809 172.932 601.196 174.966C600.578 176.447 599.413 179.061 600.028 180.606C601.009 183.071 603.462 186.629 605.033 188.777C611.389 197.471 618.082 205.601 624.525 214.274C629.546 221.032 634.575 228.246 639.798 234.859C640.358 235.567 643.538 237.07 644.497 237.537C646.049 240.294 647.471 241.446 649.248 243.904L649.108 244.49L646.805 244.509L636.189 243.041C626.154 233.416 617.495 218.778 608.934 207.562C602.888 199.315 596.239 191.533 590.319 183.197C586.021 177.145 589.937 171.002 593.979 166.201Z"/><path fill="#BEA2C1" d="M525.353 61.5904C529.405 61.4773 533.262 62.3137 536.4 64.9803C548.413 75.1902 560.605 85.151 572.843 95.0879C578.915 100.018 588.444 106.912 592.375 113.522C591.375 115.975 590.645 119.534 587.953 120.066L586.162 118.603C572.947 106.497 559.376 94.7858 545.466 83.4855C540.709 79.651 533.641 73.7552 528.378 70.9304C526.704 70.0321 518.354 67.7417 515.699 66.8639C519.403 63.8647 520.612 62.9087 525.353 61.5904Z"/><path fill="#BEA2C1" d="M475.807 64.7182C491.311 63.9813 503.558 67.2334 517.694 73.2878C514.12 77.2813 512.552 79.8116 510.133 84.5614C502.789 80.7672 495.409 78.5356 487.416 76.6283C484.781 76.0636 482.116 75.6443 479.434 75.3722C466.913 74.0101 453.176 75.5571 443.107 83.6923C451.717 68.7024 458.997 65.8651 475.807 64.7182Z"/><path fill="#BEA2C1" d="M217.951 288.488C221.665 288.703 223.545 288.947 227.209 289.622C223.073 295.869 218.52 302.168 214.637 308.521C202.164 328.932 191.984 348.803 181.686 370.299L180.965 370.822C179.006 370.906 175.71 369.994 173.676 369.53C177.708 359.582 185.255 349.151 190.658 339.588C193.785 334.054 195.124 325.377 197.081 322.055C202.638 312.617 211.647 296.824 217.951 288.488Z"/><path fill="#BEA2C1" d="M237.223 291.296L244.18 293.074C226.344 318.034 211.63 346.384 199.485 374.526C197.981 375.118 195.032 373.929 193.414 373.417C196.198 364.489 200.488 355.906 204.451 347.477C214.02 327.123 224.313 309.607 237.223 291.296Z"/><path fill="#D8BCD5" d="M267.625 804.523C270.597 804.336 273.547 804.593 275.831 806.765C274.184 808.28 270.823 806.528 266.112 810.79C252.683 822.941 246.123 842.784 244.494 860.341C244.05 867.467 243.635 879.632 248.605 885.343C252.929 890.313 261.204 888.069 264.991 883.418C277.683 867.832 279.818 845.165 279.376 825.875L279.498 825.089L279.823 824.919C283.231 836.446 281.585 852.776 278.171 864.452C275.141 874.816 266.999 894.926 252.582 890.128C249.426 889.078 246.671 885.59 245.402 882.556C236.5 861.286 245.221 814.82 267.625 804.523Z"/><path fill="#D8BCD5" d="M670.014 299.24L670.587 300.133C662.478 313.761 658.252 337.397 660.007 352.883C659.953 356.756 660.623 361.652 661.231 365.467C666.968 401.472 686.83 435.37 720.825 450.974C729.8 455.093 737.561 456.457 747.239 457.761C733.284 458.643 720.172 454.404 708.368 447.031C663.552 419.04 641.017 345.243 670.014 299.24Z"/><path fill="#D8BCD5" d="M300.401 681.416C300.864 681.469 300.59 681.393 301.154 681.814C290.113 692.104 286.494 704.628 285.373 719.489C284.815 726.873 285.104 738.892 289.903 744.835C294.182 749.456 301.205 746.072 304.602 742.469C316.488 729.863 317.019 715.157 317.199 698.613L317.536 698.472L318.294 700.496C319.99 711.621 318.889 714.291 317.07 726.081C314.972 739.679 298.419 761.968 286.652 743.281C280.677 733.791 282.54 711.587 285.992 701.14C288.639 693.127 292.043 685.676 300.401 681.416Z"/><path fill="#E5D3DC" d="M148.321 480.355C148.652 482.283 142.892 505.139 142.083 509.688C137.961 533.62 135.484 557.805 134.671 582.076C133.947 607.572 135.517 633.083 139.363 658.298C140.485 665.504 141.826 672.674 143.385 679.799C144.118 683.264 145.736 689.263 145.761 692.621C143.617 689.43 141.934 682.07 141.131 678.19C129.708 622.988 130.733 563.043 140.932 507.742C142.177 500.992 144.827 485.747 148.321 480.355Z"/><path fill="#D8BCD5" d="M727.209 302.121C727.768 302.211 728.178 302.266 728.751 302.425C765.307 312.567 790.811 369.109 781.875 403.728C781.632 403.672 781.389 403.615 781.146 403.559C784.337 364.837 766.194 321.594 728.941 305.083C727.886 304.616 727.479 303.093 727.209 302.121Z"/><path fill="#E5D3DC" d="M149.096 569.269C150.039 571.051 149.524 579.868 149.574 582.676C149.845 593.951 150.184 605.225 150.592 616.497C151.434 637.808 154.066 658.556 158.229 679.459C159.311 684.893 167.789 714.101 167.118 716.663C164.479 711.958 162.577 703.201 161.07 697.817C151.756 664.555 148.452 630.027 148.19 595.58C148.142 589.214 147.574 575.363 149.096 569.269Z"/><path fill="#E5D3DC" d="M239.388 742.502C246.518 746.811 259.978 760.605 266.815 766.685L296.326 793.38C300.288 796.905 319.525 812.941 320.16 816.317L318.799 816.198C307.884 807.798 291.509 791.346 280.826 781.784C271.665 773.715 262.56 765.582 253.514 757.385C249.293 753.595 244.784 749.645 240.691 745.704C239.399 744.459 239.654 744.207 239.388 742.502Z"/><path fill="#BEA2C1" d="M633.353 888.36C638.253 891.214 640.086 893.95 641.606 899.218C638.116 903.628 635.761 905.437 633.219 910.577L632.904 911.228L632.186 911.246C632.107 910.55 632.006 909.857 631.884 909.167C630.964 904.209 626.269 900.992 622.365 898.405C626.075 894.396 628.784 891.346 633.353 888.36Z"/><path fill="#E5D3DC" d="M127.36 488.936L127.579 489.175C127.889 491.092 124.847 502.545 124.244 504.971C121.582 515.679 120.275 526.19 119.12 537.144C117.206 554.395 116.523 571.761 117.077 589.11C117.313 595.395 119.209 616.536 118.623 621.237C117.358 619.849 117.068 615.764 116.939 613.801C114.515 576.749 113.719 524.071 127.36 488.936Z"/><path fill="#E5D3DC" d="M246.612 730.817C249.251 731.608 259.829 741.813 262.408 744.101C278.36 758.195 294.075 772.555 309.545 787.177C312.574 790.025 323.435 798.803 324.541 802.129C321.261 800.746 248.73 734.819 246.612 730.817Z"/><path fill="#D8BCD5" d="M315.919 685.987C317.741 687.33 325.757 695.474 328.055 697.706C335.522 705.055 343.209 712.177 351.107 719.062C351.263 720.509 350.769 720.731 349.912 722.303C349.032 723.196 349.534 722.959 348.483 723.159C341.126 714.662 318.568 694.941 315.919 685.987Z"/><path fill="#E5D3DC" d="M162.198 618.311C162.767 619.584 163.365 644.587 163.607 648.252C164.091 655.579 164.804 662.889 165.744 670.172C166.974 679.219 168.47 688.216 170.731 697.068C172.015 702.091 174.527 707.226 175.466 712.262C173.188 709.62 171.181 703.916 170.228 700.528C163.563 676.83 161.133 651.713 161.341 627.149C161.364 624.34 161.403 620.967 162.198 618.311Z"/><path fill="#BEA2C1" d="M523.683 79.3602C525.037 79.3288 526.541 79.3345 527.59 80.2402C531.88 83.9442 543.472 95.1068 544.285 100.23L543.71 100.725C541.628 100.136 540.145 98.3692 538.495 96.8284C533.416 92.7062 527.227 87.303 521.98 83.6786C520.914 85.6343 520.301 86.7368 519.024 88.5438L518.747 88.3527C520.037 84.5703 521.078 82.3871 523.683 79.3602Z"/><path fill="#311C35" d="M673.253 295.932C674.494 294.926 675.473 293.887 676.992 293.561C675.37 298.271 672.28 302.581 670.412 307.191C665.179 320.1 663.923 333.584 664.062 347.409L663.765 351.022C662.034 340.395 664.278 317.07 669.747 307.431C670.183 306.664 670.148 306.665 670.173 305.742L669.486 305.354C666.371 307.418 663.769 319.805 662.953 323.814C662.039 328.356 661.376 332.945 660.967 337.56C660.78 339.659 660.551 352.059 660.007 352.883C658.252 337.397 662.478 313.761 670.587 300.133L670.014 299.24C670.82 297.948 671.839 296.491 673.253 295.932Z"/><path fill="#765F76" d="M670.014 299.24C670.82 297.948 671.839 296.491 673.253 295.932C672.434 297.749 671.782 298.507 670.587 300.133L670.014 299.24Z"/><path fill="#BEA2C1" d="M787.184 565.434L787.979 565.802C789.347 569.302 786.519 571.117 788.909 576.009C786.07 576.633 782.423 577.86 779.562 578.742C778.7 576.714 777.827 574.691 776.942 572.673C772.945 572.294 771.262 573.863 769.164 569.841L770.026 569.638C774.353 571.539 775.109 570.741 779.417 568.937C782.021 567.846 784.613 566.61 787.184 565.434Z"/><path fill="#D8BCD5" d="M297.638 704.312C299.548 706.46 295.605 731.89 294.555 733.508L293.692 733.37C290.414 724.991 290.418 710.561 297.638 704.312Z"/><path fill="#B29BAD" d="M738.56 533.861C740.851 540.905 743.089 554.743 744.335 562.111C746.29 573.665 748.312 585.206 750.4 596.737C751.454 602.61 752.874 611.96 754.84 617.377C761.245 622.37 770.944 625.597 775.084 629.047C770.657 628.534 758.295 621.141 754.401 617.982C753.45 617.051 752.957 615.29 752.705 614.084C748.156 592.394 744.787 570.484 740.897 548.673C740.106 544.233 738.502 538.159 738.56 533.861Z"/><path fill="#BEA2C1" d="M683.476 807.885C685.411 809.642 685.753 813.379 689.849 816.882C684.072 818.791 679.936 819.856 674.08 821.156C672.153 821.476 670.217 822.321 668.373 823.022C673.672 817.997 678.408 813.151 683.476 807.885Z"/><path fill="#B29BAD" d="M673.406 271.034L673.612 271.404C678.004 279.155 683.934 286.866 688.681 294.587C693.951 303.159 699.123 312.031 704.68 320.377C710.489 329.102 719.116 324.89 723.677 317.548L724.276 317.714C724.586 318.74 724.756 318.997 724.179 320.063C721.652 324.729 710.502 328.853 706.192 324.506C700.998 319.268 695.592 307.647 691.562 301.216C685.376 291.343 679.264 281.716 673.047 271.992L673.406 271.034Z"/><path fill="#B29BAD" d="M750.135 473.402C753.256 477.032 768.11 556.457 769.474 564.749C769.275 564.608 769.075 564.467 768.875 564.326C764.224 549.023 762.821 532.393 759.652 516.607C756.779 502.302 752.511 487.725 750.135 473.402Z"/><path fill="#BEA2C1" d="M785.349 679.368C785.883 681.747 784.602 686.095 784.014 688.605C789.652 693.255 792.273 694.606 799.297 695.728C798.238 697.47 797.502 696.95 795.527 698.76L795.596 700.762L795.055 701.002C789.749 695.04 784.944 691.085 777.644 688.016C781.745 684.899 782.685 683.554 785.349 679.368Z"/><path fill="#D8BCD5" d="M299.011 812.335C301.978 812.601 313.491 822.848 313.619 826.202L313.046 826.651C309.693 825.403 296.917 816.027 295.46 813.2L295.897 812.553C296.308 812.613 297.083 812.695 297.447 812.81L299.011 812.335Z"/><path fill="#3A273B" d="M299.011 812.335C303.559 817.004 309.079 820.715 313.343 825.744C308.008 822.044 302.488 817.046 297.447 812.81L299.011 812.335Z"/><path fill="#E5D3DC" d="M276.913 644.329C279.115 644.968 304.928 673.327 308.957 677.717C304.495 677.131 280.107 649.455 276.913 644.329Z"/><path fill="#BEA2C1" d="M779.354 552.143L780.762 552.002C782.322 552.756 783.206 554.608 784.177 556.148C782.029 557.25 779.843 558.495 777.721 559.662C776.655 560.246 776.702 560.293 775.514 560.437C773.402 558.016 773.746 556.2 774.993 553.518C776.808 552.134 776.756 552.54 779.354 552.143Z"/><path fill="#D8BCD5" d="M618.281 186.978C622.798 184.166 626.2 181.821 627.379 176.254C627.875 173.909 626.924 171.99 627.138 169.665C632.235 171.616 628.824 184.908 621.238 187.757C619.939 187.632 619.973 187.666 618.711 187.336L618.281 186.978Z"/><path fill="#765F76" d="M622.481 242.048C616.36 233.005 610.287 224.063 603.555 215.45C602.113 213.605 597.401 208.16 597.141 206.302L597.685 206.232C600.644 209.213 601.617 211.66 604.042 214.851C610.194 222.948 617.61 231.756 622.75 240.518L622.481 242.048Z"/><path fill="#E5D3DC" d="M238.632 774.917C242.344 776.103 258.062 791.394 260.79 795.101C257.552 793.722 240.194 778.301 238.632 774.917Z"/><path fill="#E5D3DC" d="M237.822 781.453C242.408 783.159 253.347 794.19 257.88 798.104C254.094 797.614 240.256 784.894 237.822 781.453Z"/><path fill="#D8BCD5" d="M293.73 815.919C297.203 816.871 311.503 829.184 313.982 832.663C311.34 831.642 295.417 818.809 293.73 815.919Z"/><path fill="#B29BAD" d="M618.711 187.336C619.05 191.384 633.888 205.983 632.703 209.322C630.736 208.118 618.39 189.708 617.339 187.302L618.281 186.978L618.711 187.336Z"/><path fill="#E5D3DC" d="M849.989 883.602L850.237 883.87C842.36 889.65 839.61 891.584 833.039 898.835L832.732 898.533C833.068 893.603 845.556 885.658 849.989 883.602Z"/><path fill="#E5D3DC" d="M622.481 242.048L622.75 240.518C628.9 249.126 628.621 249.528 638.042 253.27C631.651 256.208 625.205 246.386 622.481 242.048Z"/><path fill="#E5D3DC" d="M320.273 751.505C323.58 753.424 333.552 760.235 335.135 763.711C331.662 763.301 322.244 754.388 320.273 751.505Z"/><path fill="#765F76" d="M518.322 91.9406C521.258 94.3232 536.039 108.571 538.388 111.15C534.815 110.197 520.173 95.4704 518.322 91.9406Z"/><path fill="#D8BCD5" d="M667.898 823.636C670.829 826.035 678.747 824.248 680.914 825.604L679.519 825.997C676.278 826.346 668.911 827.212 666.076 826.008L666.004 825.237L667.898 823.636Z"/><path fill="#765F76" d="M633.893 189.205C635.056 190.085 645.014 203.477 646.911 205.793L646.463 206.425C643.027 202.937 638.952 197.321 635.986 193.359C634.42 192.802 634.221 192.783 632.773 191.859L633.893 189.205Z"/><path fill="#B29BAD" d="M609.535 145.275C614.081 140.526 619.868 138.465 626.092 136.782C628.367 137.815 628.329 137.232 629.971 137.647C621.749 138.367 616.721 141.535 609.535 145.275Z"/><path fill="#E5D3DC" d="M319.226 756.406C321.431 757.12 331.45 764.442 332.794 766.497C328.331 766.117 322.058 759.688 319.226 756.406Z"/><path fill="#E5D3DC" d="M240.885 770.866C243.847 771.482 251.265 779.593 253.823 782.134C250.129 781.31 243.668 773.873 240.885 770.866Z"/><path fill="#E5D3DC" d="M317.953 762.36C320.48 763.239 327.618 769.047 330.279 771.021C326.259 770.666 320.412 765.408 317.953 762.36Z"/><path fill="#D8BCD5" d="M326.914 750.526C328.643 751.414 335.136 756.83 336.62 758.225C333.465 758.281 328.46 753.211 326.914 750.526Z"/><path fill="#765F76" d="M730.842 876.73C733.96 875.217 738.781 873.371 742.305 873.833C738.116 875.052 735.158 876.013 731.102 877.588L730.842 876.73Z"/><path fill="#B29BAD" d="M736.436 420.249C735.695 421.71 734.927 425.107 733.84 427.554L733.513 427.511C733.851 423.752 734.146 422.294 735.943 418.987L736.436 420.249Z"/><path fill="#5E495E" d="M673.047 271.992C671.757 270.238 668.901 266.829 668.846 264.837C670.744 265.802 672.393 269.163 673.406 271.034L673.047 271.992Z"/><path fill="#765F76" d="M558.336 876.164C560.616 875.549 564.179 874.478 566.467 874.978C563.49 876.111 561.351 876.355 558.67 877.247L558.336 876.164Z"/><path fill="#E5D3DC" d="M730.842 876.73L731.102 877.588C728.443 878.893 726.641 879.87 724.094 881.403C724.066 881.012 724.162 880.148 724.195 879.721L730.842 876.73Z"/><path fill="#5E495E" d="M939.991 886.919C942.095 886.368 942.333 886.411 944.547 886.468L945.239 886.932C943.796 887.756 941.765 887.63 940.025 887.696L939.991 886.919Z"/></svg>