<?xml version="1.0" encoding="utf-8" ?><svg xmlns="http://www.w3.org/2000/svg" xmlns:xlink="http://www.w3.org/1999/xlink" width="1024" height="1024" viewBox="0 0 1024 1024"><path fill="#2E2E2E" d="M0 0L1024 0L1024 1024L0 1024L0 0Z"/><path fill="#F5D163" d="M491.446 47.7106C494.283 47.401 504.496 47.5926 507.804 47.5955C535.533 47.6404 563.194 50.3236 590.415 55.6087C707.104 78.2864 810.117 146.126 877.043 244.368C872.421 243.501 869.654 243.245 864.952 242.964C857.627 233.694 849.261 226.137 840.986 217.912C826.501 203.514 812.488 193.625 796.013 182.121C754.231 152.948 707.214 132.37 657.785 120.073C608.694 107.86 554.977 108.153 505.319 116.84C498.475 118.037 491.507 119.652 484.676 121.065C479.868 122.06 477.025 119.819 474.636 120.615C464.735 123.914 443.22 130.224 434.739 135.254L432.172 139.852C423.258 144.109 414.043 147.565 405.071 151.992C342.529 182.851 292.056 229.598 251.228 286.156C215.903 334.165 190.943 388.993 177.935 447.161C167.762 491.358 165.905 524.374 169.275 569.151C165.679 572.287 164.789 573.199 162.807 577.699C159.841 588.083 169.192 628.758 173.004 640.606C174.853 646.353 181.644 649.935 186.939 652.308C190.456 663.657 193.078 675.168 197.375 686.362C212.459 725.652 232.341 762.976 257.442 796.805C266.288 808.726 275.878 820.05 285.4 831.323C268.923 840.17 261.355 853.577 249.895 866.269C230.009 852.499 217.807 843.543 199.463 827.256C113.328 750.656 60.8337 643.208 53.3479 528.183C45.7465 405.985 87.7262 285.882 169.796 195.028C183.109 180.337 197.434 166.595 212.665 153.903C274.028 102.151 348.097 67.7231 427.219 54.1784C449.453 50.2833 469.082 49.0267 491.446 47.7106Z"/><path fill="#2E2E2E" d="M73.2611 437.159C79.4933 435.787 90.1646 433.706 95.2604 430.303C97.58 428.786 99.3827 426.599 100.428 424.032C102.26 419.644 104.84 399.907 106.24 393.411C106.399 403.795 106.498 417.624 112.24 426.526C120.46 429.102 128.648 429.588 136.588 432.102C127.29 433.119 120.731 435.433 112.317 439.085C110.72 445.124 109.381 458.897 108.921 465.216C108.943 468.061 109.124 470.862 108.532 473.624C107.81 472.46 107.903 471.379 107.738 469.893C107.193 467.96 106.408 465.089 106.174 463.181C102.974 437.112 96.4192 438.989 73.2611 437.159Z"/><path fill="#6C511F" d="M107.738 469.893C108.347 468.741 108.644 466.601 108.921 465.216C108.943 468.061 109.124 470.862 108.532 473.624C107.81 472.46 107.903 471.379 107.738 469.893Z"/><path fill="#2E2E2E" d="M236.096 171.314C238.365 174.103 234.586 186.478 240.838 195.596L241.443 195.807C247.847 198.085 254.049 197.946 260.884 198.371C254.149 201.063 247.409 202.151 240.513 205.457C237.446 212.467 238.443 226.758 236.614 228.666L236.476 226.693C235.452 222.287 232.972 212.573 230.629 209.097C226.598 203.12 215.305 204.029 208.108 202.653C213.628 201.211 222.372 199.514 226.858 196.471C231.778 193.133 235.155 177.282 236.096 171.314Z"/><path fill="#22232D" d="M111.869 586.99C116.26 586.928 117.597 586.425 120.977 589.16C122.458 592.34 120.918 593.737 118.568 595.773C111.161 596.921 107.862 594.089 111.869 586.99Z"/><path fill="#22232D" d="M384.075 107.017C386.21 107.082 387.381 108.205 388.294 109.947C388.598 114.063 385.678 115.526 382.466 116.834C378.661 116.61 375.919 114.441 377.986 110.577C379.364 107.998 381.472 107.788 384.075 107.017Z"/><path fill="#22232D" d="M161.011 355.452C168.131 355.853 167.688 362.608 162.636 365.451C155.566 364.378 155.93 359.246 161.011 355.452Z"/><path fill="#F5D163" d="M670.22 460.508C674.723 461.771 680.133 461.75 684.726 460.928C686.839 466.511 690.139 473.212 692.517 479.095C699.677 496.807 706.536 514.639 713.092 532.583C730.142 581.395 743.84 631.313 754.09 681.991C757.386 697.96 761.837 718.881 763.822 734.833C757.986 739.981 741.39 747.735 733.732 751.204C729.963 752.91 723.501 755.246 720.404 757.767L720.968 758.877C734.164 758.626 754.967 747.621 764.668 738.862C765.697 743.758 766.838 755.503 767.578 760.981C757.811 768.691 730.113 779.242 718.208 785.401C711.688 788.773 706.846 789.998 700.363 795.068C722.154 792.519 749.56 777.095 768.103 765.942C768.607 771.996 769.264 777.856 769.625 783.937C765.991 785.748 762.504 787.261 758.902 789.225C762.631 789.337 765.176 787.286 768.093 785.556L769.164 785.965L769.712 787.205C768.35 790.483 764.508 789.197 762.383 792.624C764.414 791.839 767.667 790.215 769.736 789.253C769.842 795.276 770.143 800.671 770.552 806.681C747.235 819.255 722.434 829.057 697.569 837.974C686.972 841.775 655.997 850.007 648.308 854.546C679.715 854.707 742.125 826.955 770.366 812.148C770.615 817.377 770.51 823.069 770.513 828.337C766.593 830.71 757.914 834.37 753.387 836.381C740.458 842.249 727.332 847.671 714.031 852.638C707.569 855.001 700.773 857.16 694.308 859.471C693.502 859.759 693.646 859.879 693.455 860.682L694.26 861.372C707.825 863.773 756.398 841.097 770.44 834.093L769.935 847.881C762.418 850.463 746.225 858.33 737.829 861.784C710.243 873.024 682.08 882.796 653.461 891.058C645.315 893.455 631.639 897.751 623.681 898.813C619.14 896.796 613.362 893.509 608.872 891.12C624.126 886.243 675.121 875.47 683.935 867.611L683.967 866.887C679.992 866.006 662.926 871.15 658.006 872.375C639.157 876.909 620.398 881.808 601.74 887.069C596.646 883.97 591.495 880.602 586.39 877.443C592.429 875.823 617.951 869.1 621.041 865.255L620.862 864.683C615.991 862.905 587.855 871.441 580.226 873.068C575.684 870.581 571.901 867.365 567.895 864.128C570.201 862.584 572.157 860.988 574.321 859.268C570.455 860.086 567.232 860.731 563.326 861.27C543.289 846.507 521.928 827.009 509.109 805.678C509.511 805.368 509.909 805.053 510.302 804.731C522.285 795.047 534.041 762.312 523.38 749.426C525.821 745.302 527.073 743.091 528.926 738.715C542.884 732.817 549.757 725.492 555.472 711.142C561.54 695.904 563.261 682.066 556.74 666.847C557.792 663.904 559.037 661.03 560.244 658.147C621.53 652.092 636.434 558.412 574.607 537.401C573.614 524.894 572.185 512.425 570.323 500.017C579.031 496.261 587.852 493.225 596.704 489.894C606.694 486.051 616.665 482.157 626.616 478.212C640.753 472.666 656.418 465.457 670.22 460.508Z"/><path fill="#22232D" d="M758.902 789.225C762.631 789.337 765.176 787.286 768.093 785.556L769.164 785.965L769.712 787.205C768.35 790.483 764.508 789.197 762.383 792.624C756.569 795.974 738.159 803.428 731.524 806.089C702.495 817.93 672.795 828.051 642.577 836.399C625.709 840.951 612.316 844.891 594.577 844.867C601.24 841.535 616.586 838.04 624.271 836.032C640.403 831.817 656.488 827.792 672.359 822.541C693.572 815.349 714.595 807.606 735.405 799.32C742.625 796.443 752.174 791.48 758.902 789.225Z"/><path fill="#F5D163" d="M437.667 151.91C455.231 160.152 472.009 172.631 486.942 184.935C540.361 229.644 584.757 284.136 617.747 345.489C622.988 355.442 627.709 364.386 631.899 374.852C630.809 377.133 625.838 390.239 624.749 390.712C607.063 398.4 587.982 404.403 570.273 412.275C563.534 415.27 555.135 417.623 549.201 421.256C536.449 402.964 515.9 405.414 500.582 418.885C497.288 421.782 494.801 425.544 492.457 429.215C489.657 434.134 488.28 437.115 486.584 442.46C459.102 453.154 430.28 463.165 402.531 473.811L374.079 484.949C370.571 486.326 361.085 490.288 357.781 490.756C354.611 487.712 351.764 460.981 351.005 455.203C337.996 356.191 349.536 245.937 417.223 167.702C424.525 159.263 427.65 156.605 437.667 151.91Z"/><path fill="#F5D163" d="M352.114 582.492C353.446 582.788 356.444 591.699 357.065 593.277C359.998 600.747 363.037 608.175 366.182 615.558C391.731 673.719 422.687 729.352 458.641 781.724C458.03 791.238 460.155 792.231 463.725 800.971C456.957 801.408 444.607 802.205 439.391 807.211C429.387 816.813 419.397 830.359 413.176 842.765C408.791 851.51 408.173 857.949 411.512 867.086C405.463 866.613 399.844 865.912 393.922 867.385C386.669 858.972 348.696 829.515 338.102 823.422C356.075 841.264 370.336 852.93 390.25 868.198L381.149 872.678C348.959 848.827 315.365 817.661 286.46 789.954C300.56 813.467 339.168 846.252 360.864 864.107C365.522 867.89 370.393 871.47 375.116 875.149C375.972 875.816 376.289 877.237 376.25 878.304L375.547 878.935C373.086 878.854 368.518 875.553 366.4 874.084C304.539 831.454 254.881 773.409 222.339 705.695C215.224 691.035 204.121 663.768 201.231 647.926L208.714 644.042C213.923 659.878 227.2 698.367 238.838 710.155C237.122 703.02 232.19 694.283 229.231 687.251C222.84 672.174 218.123 656.441 215.166 640.334L220.185 637.49C224.291 653.709 231.334 679.985 242.539 692.66C233.13 669.684 230.385 659.344 226.428 635.278L233.204 632.036C233.7 635.113 235.11 642.949 238.501 643.848L239.276 643.07C240.77 638.496 239.489 634.297 238.596 629.579C260.845 619.548 283.302 609.986 305.954 600.898C321.317 594.635 336.518 588.165 352.114 582.492Z"/><path fill="#22232D" d="M293.246 633.194C315.817 633.738 332.893 648.078 342.609 667.965C347.841 678.674 351.056 698.367 346.881 709.733C359.175 725.534 369.803 743.327 381.593 759.555C386.871 766.818 392.416 774.621 397.057 782.301C386.197 787.077 373.856 790.713 362.51 794.076C347.927 798.336 337.327 800.655 322.195 801.822C317.272 795.179 310.085 773.088 307.188 764.506C302.254 749.887 296.695 734.44 291.982 719.8C290.258 718.856 288.606 717.786 287.04 716.599C261.58 697.685 249.367 637.804 293.246 633.194Z"/><path fill="#F5D163" d="M292.319 638.162C312.858 636.894 330.7 654.296 338.066 672.064C342.139 681.886 345.016 698.249 340.828 708.402C356.206 732.438 371.954 756.237 388.065 779.789C378.928 782.997 369.701 785.941 360.395 788.617C347.131 792.078 337.312 794.358 323.871 796.185C314.324 769.592 305.445 742.914 295.201 716.576C294.109 715.922 293.042 715.228 292 714.496C268.524 697.706 253.947 643.211 292.319 638.162Z"/><path fill="#2E2E2E" d="M294.602 645.56C313.01 644.598 329.671 664.273 334.084 680.506C336.892 690.831 334.764 696.7 331.031 706.074C339.219 719.227 348.44 732.55 356.494 745.831C359.799 751.279 372.078 768.179 373.375 773.06C371.288 775.904 359.689 778.945 355.783 780.109C348.434 782.443 337.261 784.263 329.571 785.361C326.073 779.137 323.469 771.84 320.784 765.21C315.365 751.828 310.99 738.077 305.682 724.661C304.49 721.651 304.267 717.557 303.376 714.919C301.131 712.317 298.023 710.418 295.297 708.267C278.06 694.669 263.6 653.012 294.602 645.56Z"/><path fill="#F5D163" d="M828.831 368.141C832.577 372.098 842.916 396.312 845.417 402.049C876.459 473.248 895.968 560.415 895.009 638.496C887.994 643.954 880.918 649.332 873.782 654.63C870.107 657.347 858.523 664.855 857.323 668.842L857.905 669.335C865 668.912 887.424 651.305 894.627 646.089C894.487 652.057 894.219 658.022 893.825 663.978C879.912 676.326 865.298 687.862 850.056 698.527C844.435 702.504 838.567 706.027 832.745 709.695C830.898 710.859 828.565 712.11 828.583 714.447C829.361 714.923 829.454 715.073 830.425 715.133C840.915 715.782 883.381 681.417 892.673 673.286C891.999 680.019 891.436 686.763 890.986 693.515C883.924 698.379 877.102 703.999 869.961 709.018C857.092 717.967 843.915 726.464 830.454 734.494C828.183 735.774 823.041 738.143 823.282 741.118C832.932 744.372 881.091 707.744 890.019 701.029C888.75 707.078 888.025 713.041 886.102 718.926C863.549 737.993 846.423 748.173 821.096 761.834C820.759 749.16 817.362 728.089 815.392 715.071C802.954 636.963 782.415 560.362 754.107 486.51C747.861 470.007 739.551 447.858 732.014 431.898C733.824 428.728 735.693 424.646 737.324 421.304C767.226 404.228 800.836 388.134 828.831 368.141Z"/><path fill="#F5D163" d="M407.132 165.095C407.003 166.493 395.33 179.189 393.485 181.717C334.384 262.724 320.677 373.372 330.472 470.965C331.451 480.714 333.512 489.678 334.666 499.094L334.739 499.722C285.822 518.224 237.524 538.325 189.924 559.991L184.518 562.409C184.298 548.471 183.097 534.843 183.683 520.749C185.9 467.374 197.096 422.341 218.002 373.608C250.398 299.283 302.455 235.203 368.567 188.267C377.419 182.094 397.159 169.087 407.132 165.095Z"/><path fill="#22232D" d="M211.232 432.259C211.847 432.799 211.518 432.436 212.077 433.46C210.927 442.519 208.886 451.475 207.677 460.495C204.657 483.02 202.867 505.653 201.595 528.337C201.318 533.291 202.145 540.743 200.548 545.148C199.036 546.029 199.883 545.815 197.84 545.393C196.623 540.309 195.541 535.187 195.143 530.014C193.395 507.299 199.654 451.596 211.232 432.259Z"/><path fill="#22232D" d="M219.004 459.77C221.854 466.116 217.67 501.867 218.609 511.081C219.308 517.943 219.669 528.503 219.057 535.505C218.959 536.632 218.443 536.803 217.642 537.209L216.65 536.344C216.444 535.963 216.244 535.579 216.051 535.192C209.013 521.02 213.996 474.84 219.004 459.77Z"/><path fill="#22232D" d="M230.858 480.251L231.369 480.562C233.274 484.561 236.706 517.121 236.88 523.358C237.021 528.458 237.601 528.001 234.411 531.636C226.976 522.889 228.66 499.494 229.363 488.34C229.539 485.546 229.547 482.78 230.858 480.251Z"/><path fill="#22232D" d="M246.033 498.659C246.717 498.916 246.898 499.125 247.513 499.551C250.967 507.899 254.934 515.257 254.897 524.302C246.743 523.642 243.958 504.519 246.033 498.659Z"/><path fill="#141214" d="M264.46 511.265C266.528 512.721 267.963 517.835 268.619 520.29C267.373 520.221 267.46 520.243 266.387 519.602C264.557 516.608 264.676 514.839 264.46 511.265Z"/><path fill="#F5D163" d="M508.376 130.884C514.048 130.344 517.762 130.208 523.381 131.236C529.221 131.024 540.484 133.237 546.485 134.392C613.889 147.36 687.242 190.432 736.625 237.541C756.717 256.672 774.641 277.957 790.074 301.012C787.956 302.699 785.231 304.364 782.882 305.741C760.187 319.05 737.374 332.358 714.032 344.494C710.597 346.28 707.165 347.819 703.943 349.984C698.212 347.987 693.355 346.788 687.31 346.428C643.212 265.487 577.466 181.405 498.551 131.859C501.933 131.639 505.01 131.285 508.376 130.884Z"/><path fill="#F5D163" d="M508.376 130.884C514.048 130.344 517.762 130.208 523.381 131.236C521.202 132.542 513.046 133.069 510.369 132.093C510.321 132.075 508.558 130.993 508.376 130.884Z"/><path fill="#F5D163" d="M531.631 514.029C533.542 514.991 536.612 536.898 537.139 539.953C521.09 549.351 512.749 560.05 506.59 577.954C501.285 593.378 501.361 612.714 508.971 627.465C512.989 635.254 521.713 647.956 530.491 651.487C531.35 651.832 530.651 651.167 531.462 652.473C531.143 654.506 531.195 654.443 530.216 656.228C512.863 659.935 501.058 689.655 500 705.392C499.525 712.463 502.633 718.551 506.324 724.207C485.954 729.56 477.626 739.432 466.764 757.334C459.048 746.32 452.311 736.578 445.152 725.206C424.532 692.619 406.566 658.426 391.43 622.958C384.394 606.667 378.308 592.09 373.038 575.116C391.286 566.72 417.621 557.651 437.109 550.279L531.631 514.029Z"/><path fill="#F5D163" d="M527.083 448.531L527.664 448.778C530.378 453.79 535.849 481.155 536.673 487.625C533.891 488.891 530.638 490.024 527.738 491.076C487.231 505.776 446.687 520.569 406.249 535.451C330.532 563.162 255.801 593.494 182.19 626.394L181.102 626.738C178.337 624.159 173.608 595.53 173.326 590.134C187.771 583.568 201.933 576.153 216.243 569.275C245.421 555.25 275.578 544.066 305.375 531.696C342.884 516.125 380.674 503.042 418.584 488.682L475.74 467.191C494.226 460.195 508.15 454.569 527.083 448.531Z"/><path fill="#22232D" d="M389.211 507.548C406.778 506.696 406.601 530.53 391.411 533.837C374.245 532.168 372.698 513.033 389.211 507.548Z"/><path fill="#F5D163" d="M389.309 509.436C397.934 510.31 396.83 521.871 388.97 524.73C384.72 523.852 381.443 520.829 382.779 516.23C383.863 512.496 386.189 511.224 389.309 509.436Z"/><defs><linearGradient id="gradient_0" gradientUnits="userSpaceOnUse" x1="273.80484" y1="579.02423" x2="271.02359" y2="556.62122"><stop offset="0" stop-color="#2B2928"/><stop offset="1" stop-color="#1C1C2F"/></linearGradient></defs><path fill="url(#gradient_0)" d="M270.516 556.084C286.481 555.417 288.082 572.619 274.248 580.471C272.609 580.581 270.71 580.689 269.128 580.202C266.324 579.31 264.017 577.294 262.758 574.635C258.9 566.586 262.808 559.491 270.516 556.084Z"/><path fill="#F5D163" d="M271.559 557.991C279.847 557.612 281.892 566.968 273.542 569.612C263.134 569.26 264.122 562.487 271.559 557.991Z"/><path fill="#2E2E2E" d="M507.23 467.084C512.472 466.678 517.457 468.176 519.624 473.448C520.76 476.253 520.664 479.406 519.359 482.137C517.367 486.374 514.237 488.088 510.059 489.564C491.81 490.716 493.224 471.568 507.23 467.084Z"/><path fill="#F5D163" d="M506.627 469.475C509.877 469.439 514.334 470.638 513.744 474.693C513.397 477.08 511.061 478.147 509.226 479.297C498.776 482.265 500.681 472.908 506.627 469.475Z"/><defs><linearGradient id="gradient_1" gradientUnits="userSpaceOnUse" x1="210.91756" y1="605.50854" x2="208.69037" y2="584.0321"><stop offset="0" stop-color="#2B2929"/><stop offset="1" stop-color="#222334"/></linearGradient></defs><path fill="url(#gradient_1)" d="M208.059 583.508C223.764 582.165 226.378 601.069 212.198 606.53C210.116 606.881 207.981 606.748 205.958 606.142C194.909 602.897 197.866 588.533 208.059 583.508Z"/><path fill="#F5D163" d="M209.588 585.913C217.533 585.754 217.882 591.784 211.449 595.944C202.293 596.657 203.505 589.654 209.588 585.913Z"/><path fill="#F5D163" d="M903.364 312.304C905.607 313.852 911.246 324.957 912.588 327.652C915.538 333.577 919.388 340.237 921.205 346.639C921.829 350.357 921.567 354.423 921.591 358.196C921.68 371.939 921.673 385.476 919.306 399.066C919 400.823 918.905 403.379 920.106 404.844L920.901 404.654C928.181 393.823 926.383 364.173 924.617 351.449C926.36 355.693 940.37 386.318 939.888 388.658C937.57 399.903 934.132 415.571 930.321 426.691C928.001 433.458 922.859 443.188 922.397 450.228L922.865 450.7C925.752 449.07 928.474 443.235 929.928 440.213C937.042 425.422 941.181 410.279 941.819 393.896C944.191 399.451 946.503 408.081 948.225 414.046C956.186 441.629 961.565 469.591 962.918 498.289C961.908 500.704 958.48 506.805 957.111 509.401C944.931 532.001 930.529 553.33 914.118 573.072C912.997 567.489 912.213 559.892 911.376 554.022C909.952 543.915 908.29 533.842 906.39 523.813C900.431 492.422 888.141 452.555 876.632 423.032C871.623 409.985 866.034 397.168 859.882 384.62C855.659 376.047 850.2 366.553 846.604 357.973C852.577 354.16 859.504 348.799 865.266 344.525C878.692 334.567 892.026 324.643 903.364 312.304Z"/><path fill="#22232D" d="M952.437 478.221L953.101 478.531C957.966 486.334 930.483 533.699 920.769 539.596C919.079 538.417 919.518 539.17 919.05 537.502C920.29 532.917 929.188 521.644 932.488 516.375C940.182 504.09 945.465 490.365 952.437 478.221Z"/><path fill="#22232D" d="M947.381 440.219C954.921 444.052 936.105 488.064 926.219 493.241L924.562 492.225C923.782 490.361 927.111 485.526 928.427 483.431C937.254 469.37 941.476 455.466 947.381 440.219Z"/><path fill="#F5D163" d="M548.077 122.79C556.393 121.866 576.877 122.176 585.676 122.668C675.779 127.586 761.364 163.694 827.761 224.801C837.32 233.774 845.372 243.607 854.091 253.376C848.532 257.773 843.501 262.71 838.116 267.305C833.811 270.979 829.145 274.4 824.601 277.787C818.196 282.483 812.825 285.887 806.1 290.046C804.88 288.743 803.763 287.354 802.618 285.983C786.965 266.922 769.959 249.013 751.731 232.397C705.961 191.69 652.806 160.143 595.149 139.465C582.659 135.076 568.681 130.858 555.716 128.062C548.243 126.45 537.863 125.749 529.994 125.041C535.249 123.711 542.542 123.283 548.077 122.79Z"/><path fill="#22232D" d="M780.971 197.861C802.012 212.282 824.832 229.837 839.723 251.057C841.299 253.302 843.924 256.943 843.828 259.617L843.104 260.38C840.405 260.365 835.548 252.786 833.603 250.495C817.204 231.174 797.84 215.968 779.044 199.275L780.971 197.861Z"/><path fill="#22232D" d="M794.862 226.731C801.51 227.278 832.457 254.528 829.827 263.272C828.465 263.727 828.404 263.729 826.969 263.859C825.375 262.532 819.114 252.919 817.255 250.393C813.078 244.716 796.665 231.177 794.862 226.731Z"/><defs><linearGradient id="gradient_2" gradientUnits="userSpaceOnUse" x1="798.94202" y1="258.4744" x2="820.55798" y2="259.5256"><stop offset="0" stop-color="#191A21"/><stop offset="1" stop-color="#2C293A"/></linearGradient></defs><path fill="url(#gradient_2)" d="M798.702 245.299C803.673 245.878 821.354 266.976 821.685 272.425C820.046 272.855 820.07 272.91 818.404 272.826C815.383 270.564 799.818 248.842 798.702 245.299Z"/><path fill="#22232D" d="M802.706 268.232C808.266 269.812 814.281 277.519 814.519 283.298L812.773 283.509C809.34 281.198 804.696 271.925 802.706 268.232Z"/><path fill="#141214" d="M768.529 190.713C772.883 192.386 777.018 195.314 780.971 197.861L779.044 199.275C775.584 196.782 771.425 193.753 768.529 190.713Z"/><path fill="#F5D163" d="M726.817 439.41C729.433 442.575 739.515 468.92 741.506 474.181C774.859 562.336 800.831 660.243 811.584 753.974C807.548 751.676 804.704 746.568 799.385 748.607C791.076 751.79 789.55 765.845 798.752 769.098C806.34 771.78 808.256 762.416 811.217 760.964C812.406 763.444 813.002 799.389 813.072 804.508C804.408 784.535 786.824 808.986 798.091 816.335C805.442 821.13 809.7 814.966 813.015 809.128C813.209 813.707 813.238 818.293 813.104 822.875C812.801 832.085 812.815 844.515 811.831 853.398C808.563 856.924 799.438 863.31 795.083 866.632C793.913 841.362 792.594 812.505 789.682 787.687C786.41 762.432 781.478 737.484 776.704 712.489C766.55 659.322 754.256 605.505 737.477 554.012C731.396 535.178 724.752 516.531 717.555 498.095C712.359 484.619 706.614 470.871 701.724 457.358C714.455 453.065 717.696 448.9 726.817 439.41Z"/><path fill="#2E2E2E" d="M749.62 538.546C754.604 538.154 758.39 538.442 761.222 543.228C762.798 545.929 763.237 549.145 762.443 552.17C761.41 556.078 758.968 558.365 755.557 560.232C746.31 562.057 743.856 556.171 742.384 548.313L742.586 547.616C744.131 542.402 744.928 541.131 749.62 538.546Z"/><path fill="#F5D163" d="M750.773 540.913C753.591 540.046 756.582 541.616 757.468 544.429C758.355 547.241 756.806 550.243 753.999 551.149C751.165 552.063 748.128 550.495 747.233 547.655C746.337 544.815 747.926 541.789 750.773 540.913Z"/><path fill="#2E2E2E" d="M765.551 596.562C774.384 595.584 777.062 599.974 778.728 607.901L778.659 608.12C778.494 608.684 778.322 609.246 778.142 609.806C776.69 614.364 775.107 615.542 770.98 617.672C763.999 619.227 761.952 616.268 758.571 610.781C758.464 608.469 758.444 606.088 758.394 603.769C760.832 599.766 761.522 598.904 765.551 596.562Z"/><path fill="#F5D163" d="M766.998 598.211C769.77 597.613 772.503 599.37 773.11 602.141C773.716 604.911 771.965 607.65 769.196 608.263C766.417 608.879 763.666 607.12 763.058 604.34C762.449 601.559 764.215 598.812 766.998 598.211Z"/><path fill="#22232D" d="M731.297 483.553C732.75 483.468 734.287 483.498 735.674 483.991C738.578 485.017 740.932 487.193 742.184 490.008C743.44 492.795 743.471 495.981 742.27 498.791C740.819 502.204 738.74 503.359 735.528 504.716C730.307 504.693 725.467 503.085 723.352 497.839C722.351 495.328 722.426 492.517 723.558 490.063C725.207 486.444 727.741 484.798 731.297 483.553Z"/><path fill="#F5D163" d="M730.904 485.921C738.114 486.153 739.407 491.013 736.888 496.955L735.778 496.276L735.038 496.672C726.835 499.511 723.612 490.379 730.904 485.921Z"/><defs><linearGradient id="gradient_3" gradientUnits="userSpaceOnUse" x1="789.32709" y1="663.26147" x2="773.71283" y2="652.9342"><stop offset="0" stop-color="#272527"/><stop offset="1" stop-color="#1D1D2D"/></linearGradient></defs><path fill="url(#gradient_3)" d="M779.524 647.565C783.937 647.32 787.321 648.195 789.71 652.284C791.443 655.312 791.864 658.917 790.876 662.263C789.653 666.333 787.506 667.623 783.994 669.562C779.158 669.643 775.282 667.99 773.178 663.369C771.765 660.309 771.667 656.803 772.908 653.669C774.321 650.127 776.249 649.066 779.524 647.565Z"/><path fill="#F5D163" d="M779.997 649.886C786.697 650.215 788.566 657.932 782.249 660.585C773.244 660.511 774.317 653.352 779.997 649.886Z"/><defs><linearGradient id="gradient_4" gradientUnits="userSpaceOnUse" x1="799.21582" y1="712.86456" x2="783.7453" y2="703.1109"><stop offset="0" stop-color="#2C2A2A"/><stop offset="1" stop-color="#1F202E"/></linearGradient></defs><path fill="url(#gradient_4)" d="M788.918 698.138C794.337 697.475 795.563 697.604 799.547 701.335C802.051 708.845 802.535 715.34 794.175 718.651C785.485 718.796 780.276 714.077 782.566 704.305C783.272 701.291 786.206 699.448 788.918 698.138Z"/><path fill="#F5D163" d="M789.983 700.4C791.582 700.4 791.617 700.426 793.179 700.817C797.163 704.027 795.449 709.231 791.182 711.221C783.459 710.272 785.433 704.007 789.983 700.4Z"/><path fill="#2E2E2E" d="M801.989 834.534C810.896 834.316 809.182 836.156 811.773 843.023L812.111 843.902C810.223 848.36 809.601 849.885 805.582 852.558C793.163 855.698 792.039 840.896 801.989 834.534Z"/><path fill="#F5D163" d="M803.072 837.19C808.7 838.343 807.767 844.298 802.841 846.75C800.568 845.836 800.193 845.623 799.481 843.256C799.744 840.196 800.794 839.258 803.072 837.19Z"/><path fill="#F5D163" d="M476.063 129.032C480.11 129.232 484.654 131.788 488.028 133.884C551.529 173.34 602.2 230.227 644.458 291.25C656.658 308.867 668.166 327.016 678.104 346.274C667.134 347.858 656.256 350.491 647.431 357.6C646.611 358.437 646.363 358.689 645.554 357.718C641.842 353.181 639.613 347.492 636.713 342.433C599.508 277.533 553.63 217.303 494.52 170.827C478.671 158.366 465.093 147.527 446.074 139.495C454.699 136.153 467.27 131.437 476.063 129.032Z"/><path fill="#22232D" d="M614.525 274.551C619.787 274.327 624.773 274.409 628.252 279.053C632.578 284.828 628.411 289.93 623.544 293.139C621.716 293.658 619.729 294.015 617.832 293.728C615.087 293.314 612.629 291.799 611.027 289.532C609.346 287.171 608.742 284.209 609.365 281.379C610.121 278.01 611.737 276.295 614.525 274.551Z"/><path fill="#F5D163" d="M617.518 277.072C624.206 277.312 627.085 281.751 620.16 285.311C613.574 284.341 609.303 280.167 617.518 277.072Z"/><defs><linearGradient id="gradient_5" gradientUnits="userSpaceOnUse" x1="643.62085" y1="335.0293" x2="647.87915" y2="317.4707"><stop offset="0" stop-color="#262526"/><stop offset="1" stop-color="#19192A"/></linearGradient></defs><path fill="url(#gradient_5)" d="M643.848 316.824C649.181 315.633 654.471 318.982 655.676 324.311C656.882 329.64 653.548 334.94 648.222 336.16C645.603 336.76 642.853 336.272 640.601 334.806C637.258 332.63 635.544 328.662 636.253 324.737C636.962 320.811 639.955 317.693 643.848 316.824Z"/><path fill="#F5D163" d="M643.798 318.992C650.089 319.218 655.017 323.679 648.203 328.3C641.313 329.127 638.607 323.138 643.798 318.992Z"/><path fill="#2E2E2E" d="M553.595 195.552C565.759 195.136 572.352 208.544 558.181 213.546C545.369 215.21 540.558 200.429 553.595 195.552Z"/><path fill="#F5D163" d="M554.009 198.024C557.474 197.924 561.096 198.88 560.445 203.186C559.317 204.856 559.074 204.833 557.099 205.602C553.721 205.62 550.835 205.14 550.852 201.125C551.724 199.254 552.16 199.176 554.009 198.024Z"/><path fill="#22232D" d="M583.957 234.596C590.444 233.749 599.915 235.303 598.294 245.148C597.874 247.699 594.865 249.687 592.636 250.877C579.699 254.852 572.726 240.223 583.957 234.596Z"/><path fill="#F5D163" d="M584.888 236.595C591.131 235.838 596.866 238.34 590.085 244.156C584.551 245.347 579.916 241.547 584.888 236.595Z"/><path fill="#22232D" d="M516.982 164.002C521.906 163.905 527.153 165.097 529.422 170.029C530.3 171.902 530.32 174.065 529.476 175.953C528.121 178.957 525.608 180.353 522.737 181.551C518.157 182.374 513.742 181.556 511.297 177.109C510.147 175.061 509.912 172.625 510.647 170.394C511.695 167.131 514.125 165.496 516.982 164.002Z"/><path fill="#F5D163" d="M517.414 166.424C520.765 166.516 524.439 167.487 524.535 171.453C523.766 173.225 523.258 173.321 521.577 174.268C518.205 174.191 515.169 173.516 514.808 169.677C515.49 167.79 515.762 167.725 517.414 166.424Z"/><path fill="#22232D" d="M481.553 136.619C493.232 136.142 497.965 146.928 484.761 152.586C473.193 153.306 469.115 141.062 481.553 136.619Z"/><path fill="#F5D163" d="M482.621 138.493C485.317 138.897 487.461 139.23 487.6 142.403C486.805 144.278 486.247 144.378 484.379 145.487C481.555 144.934 478.607 144.473 478.803 140.976C479.787 139.401 480.874 139.205 482.621 138.493Z"/><path fill="#F5D163" d="M74.6473 773.403C109.474 782.034 124.168 815.976 131.198 848.079C136.124 870.571 134.66 902.57 148.052 921.586C142.449 888.985 145.259 851.754 157.595 820.821C157.561 827.245 158.904 833.196 159.626 839.493C161.619 856.87 165.703 873.074 169.121 890.023C174.203 915.226 177.505 936.971 185.956 961.514L178.478 961.27C173.197 946.899 168.506 932.317 164.417 917.562C163.149 925.929 169.566 952.423 172.053 961.09L165.503 960.836C160.848 952.031 157.689 943.438 154.472 934.054C152.836 929.282 150.879 922.491 148.865 918.056C150.072 930.589 152.476 948.951 157.489 960.513L150.899 960.4C148.858 955.834 144.824 945.751 141.699 942.371L141.042 942.515C139.499 946.498 142.712 956.963 141.259 959.197C137.898 957.413 130.784 933.237 129.014 927.896C125.27 916.592 121.594 905.898 115.938 895.309C111.045 886.36 104.689 878.294 97.1326 871.444C90.1395 865.045 82.3547 860.019 73.1051 857.705C77.1559 860.55 82.6622 864.22 86.2302 867.555C109.82 889.603 117.042 917.628 122.929 948.171C123.652 951.92 124.549 957.449 124.847 961.082L124.529 960.349C123.18 957.201 122.292 954.262 121.246 951.016C110.962 919.088 101.18 885.537 72.1434 865.296L71.8187 865.074C75.1114 871.046 82.4614 878.341 86.5017 884.359C97.5853 900.869 105.277 921.227 110.202 940.421C106.107 934.257 102.119 928.058 97.5489 922.214C95.0812 918.947 90.7492 915.918 88.658 912.499C86.2758 908.605 84.9276 903.301 83.1644 899.013C75.8646 881.259 63.4508 865.659 49.5409 852.579C48.0177 851.146 46.3925 849.777 44.9648 848.258C64.8492 846.133 84.8615 851.041 100.62 863.487C113.721 873.833 122.124 892.356 126.262 908.111C127.246 911.855 130.096 921.509 131.61 924.539L131.904 923.701C132.867 924.671 132.063 925.055 133.136 925.696L134.04 922.729C129.884 907.888 127.111 895.366 125.685 879.997C123.679 858.378 119.981 835.413 111.749 815.276C108.128 806.42 98.4337 789.141 89.6854 784.293C93.4351 789.152 97.5544 794.423 100.634 799.695C110.957 817.368 115.877 840.983 117.023 861.451C116.94 863.222 117.094 864.972 116.302 866.416C111.649 848.126 106.249 830.717 99.4297 813.107C93.2783 797.22 84.6807 786.616 74.6473 773.403Z"/><path fill="#141214" d="M131.61 924.539L131.904 923.701C132.867 924.671 132.063 925.055 133.136 925.696L134.04 922.729C134.994 926.833 138.654 939.455 137.534 942.744C136.569 940.458 131.891 926.682 131.61 924.539Z"/><path fill="#141214" d="M154.211 853.381C154.863 854.308 155.746 873.885 155.681 875.842C155.398 884.393 160.887 912.709 157.307 919.728C151.675 906.356 150.849 867.509 154.211 853.381Z"/><path fill="#F5D163" d="M678.153 353.65C703.608 350.444 726.817 368.55 729.898 394.021C732.979 419.491 714.759 442.61 689.273 445.566C663.965 448.501 641.042 430.434 637.982 405.141C634.922 379.847 652.875 356.835 678.153 353.65Z"/><path fill="#2E2E2E" d="M682.865 361.727C703.61 360.451 721.447 376.266 722.665 397.014C723.882 417.762 708.018 435.555 687.267 436.715C666.597 437.87 648.889 422.082 647.676 401.415C646.463 380.748 662.202 362.997 682.865 361.727Z"/><path fill="#F5D163" d="M678.572 377.618C698.192 375.777 715.79 397.382 704.429 415.475C700.242 422.143 694.999 423.636 688.039 425.258C657.214 425.934 644.39 385.502 678.572 377.618Z"/><path fill="#F5D163" d="M876.413 257.794C879.279 258.905 895.847 281.459 898.56 285.105C877.887 313.853 779.091 371.291 744.8 390.757L739.307 393.847C735.61 379.902 733.289 373.52 723.799 362.617C737.553 354.108 751.526 346.687 765.174 338.469C801.252 316.745 847.15 288.035 876.413 257.794Z"/><path fill="#22232D" d="M806.595 322.103C822.326 319.607 827.348 341.565 809.118 345.431L802.655 345.513C799.934 343.762 798.094 342.381 796.582 339.404C795.313 336.967 795.111 334.113 796.023 331.522C797.803 326.43 802.078 324.147 806.595 322.103Z"/><path fill="#F5D163" d="M807.101 324.976C810.239 324.67 812.588 324.937 814.746 327.344C816.522 332.107 812.549 334.93 808.883 336.922C806.198 337.323 804.095 337.177 802.042 335.267C799.525 330.455 803.677 327.396 807.101 324.976Z"/><path fill="#22232D" d="M867.312 280.843C871.398 279.883 875.684 281.193 878.536 284.272C881.387 287.351 882.365 291.725 881.095 295.725C879.826 299.725 876.505 302.735 872.399 303.606C866.147 304.932 859.991 300.979 858.597 294.74C857.203 288.502 861.089 282.304 867.312 280.843Z"/><path fill="#F5D163" d="M868.216 283.439C875.894 284.342 878.88 293.795 869.305 297.102C868.37 297.155 867.095 297.242 866.203 297.001C864.72 296.586 863.473 295.579 862.755 294.216C860.169 289.316 864.019 285.382 868.216 283.439Z"/><path fill="#F5D163" d="M254.705 880.615C242.844 896.978 233.442 925.307 231.605 945.083C231.242 948.986 231.559 956.477 231.365 961.01L230.824 961.4C224.841 959.144 226.7 933.099 227.761 927.327C229.01 920.236 231.098 913.319 233.981 906.722C241.728 888.939 266.698 850.388 282.056 839.819L282.498 840.171C282.045 842.172 281.923 842.268 280.754 844.01L281.493 845.347L281.288 845.963C281.485 851.437 280.451 858.482 281.323 863.865C284.727 884.886 292.894 907.373 291.752 928.741C291.05 941.865 291.269 954.26 281.275 963.771C281.534 961.519 282.157 958.654 282.607 956.39C287.158 933.455 284.625 912.913 278.209 890.666C277.962 895.517 278.311 902.584 278.465 907.517C279.166 930.023 278.39 943.461 267.33 963.587C266.953 959.283 268.193 952.684 268.628 948.263C269.921 935.089 272.817 913.54 270.033 900.926C268.71 903.924 268.751 912.069 267.762 915.825C263.589 931.665 260.283 947.412 257.377 963.538C255.925 951.462 258.567 932.27 261.275 920.465C256.959 927.67 252.625 938.896 249.982 946.851C248.75 950.557 248.148 959.61 246.415 961.179L245.38 961.016C239.548 952.342 246.185 913.895 248.567 902.929C249.885 896.861 252.927 886.971 254.705 880.615Z"/><defs><linearGradient id="gradient_6" gradientUnits="userSpaceOnUse" x1="272.06842" y1="887.97021" x2="257.33502" y2="885.01038"><stop offset="0" stop-color="#191305"/><stop offset="1" stop-color="#1F222F"/></linearGradient></defs><path fill="url(#gradient_6)" d="M280.754 844.01L281.493 845.347L281.288 845.963C276.205 859.309 270.3 873.058 265.44 886.572C261.331 898 258.58 911.529 253.789 922.866C253.361 923.879 248.122 930.914 247.141 932.245C252.62 908.395 260.892 886.331 270.875 864.065C273.418 858.392 276.949 848.521 280.754 844.01Z"/><path fill="#F5D163" d="M624.939 412.524L625.556 412.476C626.787 413.25 629.287 419.73 630.397 421.861C634.775 430.265 638.719 435.31 645.12 442.101C635.004 447.599 623.325 452.251 612.643 456.623L573.686 472.519L565.373 476.093C562.788 461.785 560.593 451.97 556.99 437.957C577.306 429.367 604.238 419.478 624.939 412.524Z"/><path fill="#F5D163" d="M889.081 812.322C891.394 813.802 893.527 816.022 896.137 815.105C900.77 819.301 903.316 848.087 903.663 855.536C904.08 864.477 902.441 875.933 901.463 885.081C899.443 903.985 898.611 919.67 893.237 938.019C890.37 947.81 886.135 956.729 883.493 965.683C881.657 965.343 879.963 964.99 878.1 964.831C880.155 958.214 883.523 948.273 884.68 941.781L884.266 942.491C881.053 948.05 876.843 961.032 873.402 964.149L872.88 963.905C872.867 963.314 880.477 935.956 881.413 932.434C886.961 911.553 890.237 891.216 892.978 869.758C893.805 863.282 895.555 852.234 895.518 846.047L893.941 846.59C889.605 874.757 884.281 903.831 875.054 930.818C870.968 942.767 865.879 953.191 861.032 964.803C863.437 949.706 867.084 935.278 869.799 920.452L889.081 812.322Z"/><path fill="#141214" d="M895.24 836.051C895.411 839.491 895.571 842.605 895.518 846.047L893.941 846.59C894.36 843.117 894.745 839.501 895.24 836.051Z"/><path fill="#F5D163" d="M547.862 562.931L548.299 563.424C549.105 572.755 552.045 585.796 565.107 579.081C571.181 575.959 573.307 570.037 575.025 563.811C575.712 564.366 576.972 565.347 577.498 565.99C592.146 583.871 591.128 611.68 573.698 627.314C571.702 628.55 569.311 629.77 567.222 630.899L567.056 628.74C566.499 620.815 560.345 612.577 551.384 614.81C546.574 616.008 544.085 620.752 541.972 624.842C540.86 623.803 539.791 622.72 538.766 621.596C528.37 610.043 529.045 591.449 535.258 578.169C538.356 571.547 542.522 567.71 547.862 562.931Z"/><path fill="#F5D163" d="M483.818 814.243C485.583 814.643 488.254 816.368 489.384 817.69C501.226 831.545 513.82 844.752 525.998 858.255C515.215 860.045 504.645 861.946 493.718 862.636C490.623 862.832 485.229 863.041 482.416 863.709L481.902 864.66C484.111 869.8 522.824 864.58 528.834 861.642C530.212 862.102 532.663 864.756 533.853 865.904L537.598 869.312C530.063 870.673 521.856 871.271 514.436 872.856C495.221 876.961 476.318 879.983 456.884 882.874C467.95 874.624 478.948 851.729 482.21 838.325C484.083 830.631 482.741 827.223 478.682 820.925C480.259 818.747 482.157 816.392 483.818 814.243Z"/><path fill="#F5D163" d="M504.169 424.067C508.268 419.09 517.307 416.037 523.517 415.433C529.301 414.895 535.056 416.711 539.484 420.471C550.168 429.494 552.944 452.238 556.033 465.364C562.723 493.794 565.033 522.718 569.01 551.569C569.576 555.674 568.675 565.337 564.107 566.951L563.561 566.594C563.669 564.809 564.02 564.274 564.726 562.662L564.242 562.121C561.163 563.271 560.959 566.652 558.709 566.782C555.992 562.425 556.682 550.176 556.166 544.663C553.931 520.804 546.714 454.34 536.113 435.104C532.676 428.869 527.588 424.14 520.807 421.755C518.388 422.127 514.623 422.39 512.826 423.76C511.793 426.459 512.223 426.337 510.072 428.256L509.349 428.324C508.117 426.173 509.187 423.62 508.287 423.16C506.908 425.376 506.453 426.634 505.475 429.018C505.124 427.323 504.642 425.729 504.169 424.067Z"/><path fill="#F5D163" d="M768.454 854.005L768.771 854.286C769.413 856.342 768.158 865.164 767.799 867.733C764.105 869.539 760.38 871.279 756.624 872.951C728.313 885.637 699.106 897.953 668.875 905.295C653.829 908.949 654.213 910.669 639.37 904.993C637.952 904.447 635.765 903.295 634.33 902.599C644.046 900.132 655.385 896.372 665.066 893.357C700.403 882.662 734.949 869.512 768.454 854.005Z"/><path fill="#F5D163" d="M511.53 442.614C512.444 442.884 515.561 444.908 516.569 445.525C504.03 450.741 488.981 455.989 476.09 460.906L360.836 504.036C298.251 527.032 236.817 553.046 176.75 581.987C175.437 582.645 175.057 583.025 173.62 582.904C172.097 581.405 172.397 582.249 172.312 580.441C175.389 574.594 216.723 558.274 224.362 554.967C290.008 526.55 356.03 500.13 423.343 475.92C452.84 465.311 481.663 452.777 511.53 442.614Z"/><path fill="#F5D163" d="M537.017 493.006C538.074 493.892 537.896 494.627 537.632 495.73C534.635 498.417 519.331 503.116 514.417 505C490.608 514.247 466.699 523.236 442.696 531.966C380.464 555.173 318.141 577.289 257.317 604.083C232.969 614.809 208.893 625.942 184.377 636.283L182.391 632.276C192.247 627.911 202.034 622.793 212.027 618.424C270.126 593.437 328.814 569.84 388.04 547.654L488.683 510.374C503.344 505.018 523.174 499.013 537.017 493.006Z"/><path fill="#F5D163" d="M962.489 904.822C945.592 913.914 929.053 927.106 917.887 942.562C914.516 947.227 908.913 961.112 903.813 962.105L903.222 961.739C903.25 958.927 904.878 950.248 906.021 947.96C910.473 939.045 919.735 926.685 926.601 919.907C943.454 903.521 965.472 893.491 988.896 891.53C975.56 904.793 963.153 919.998 951.895 935.034C946.498 942.243 941.496 947.94 935.263 954.442L933.79 952.487C941.599 939.796 954.553 924.702 961.146 912.87C954.22 919.283 948.052 925.111 941.945 932.263C938.583 936.199 921.189 957.328 918.692 957.782C918.146 956.162 918.83 954.561 919.679 952.981C926.301 940.653 935.156 928.891 945.468 919.47C951.052 914.368 957.141 909.981 962.489 904.822Z"/><path fill="#F5D163" d="M557.337 887.562C559.887 887.292 568.952 894.828 571.894 897.004C550.249 901.976 530.092 906.849 508.093 911.187C501.177 912.562 494.24 913.831 487.285 914.992C482.764 915.736 473.081 916.993 469.242 918.603C465.408 917.801 460.713 916.278 456.888 915.15C450.324 912.729 443.775 910.266 437.243 907.761C476.508 903.572 519.19 897.103 557.337 887.562Z"/><path fill="#F5D163" d="M880.431 835.895C880.901 839.15 876.827 856.037 875.904 859.959C868.343 892.069 863.004 942.424 841.151 968.219C842.139 964.235 844.545 958.13 845.985 954.079C848.495 947.048 850.832 939.957 852.993 932.812C856.366 921.431 858.722 908.162 861.69 896.478C865.615 881.022 869.836 866.181 872.895 850.518C871.616 852.64 870.598 854.655 869.467 856.85C861.573 872.954 855.904 897.315 850.316 914.527C844.777 931.587 838.287 949.905 829.951 965.758C833.362 952.169 836.296 938.554 839.705 924.743C844.1 906.937 851.393 885.701 857.228 868.316C859.235 862.337 875.653 840.621 880.431 835.895Z"/><path fill="#F5D163" d="M539.279 871.526C541.453 872.013 550.522 880.875 552.762 883.002C541.274 886.73 528.221 888.272 516.408 890.506C493.276 894.882 470.067 897.539 446.894 901.473C443.835 902.065 439.362 902.496 436.17 902.895C439.73 896.372 440.149 894.903 438.522 887.831C443.701 887.319 448.196 885.83 453.146 884.365C453.342 884.459 453.538 884.554 453.734 884.648C453.968 884.783 455.243 885.445 455.404 885.476C470.641 888.408 527.716 876.543 539.279 871.526Z"/><path fill="#F5D163" d="M814.318 875.58C816.974 879.091 819.995 882.871 822.139 886.672C832.379 904.821 832.305 925.864 829.908 945.975C829.423 950.044 827.127 964.86 823.022 966.86C821.243 964.8 824.339 942.129 824.655 937.413C823.07 943.719 820.668 954.519 817.911 960.107C816.103 963.666 815.582 964.485 813.166 967.65C813.396 964.708 813.873 961.515 814.254 958.562C815.363 948.605 816.797 931.285 815.439 921.576C812.513 937.451 811.247 952.874 802.568 966.966C808.666 935.08 811.046 907.89 814.318 875.58Z"/><path fill="#F5D163" d="M814.254 958.562L815.895 961.065C817.379 960.909 816.679 961.125 817.911 960.107C816.103 963.666 815.582 964.485 813.166 967.65C813.396 964.708 813.873 961.515 814.254 958.562Z"/><path fill="#141214" d="M818.207 896.317C821.09 898.487 824.133 917.585 823.854 921.589C821.867 919.541 818.586 899.989 818.207 896.317Z"/><path fill="#F5D163" d="M963.514 508.785C964.895 511.918 964.66 527.724 964.525 532.226C964.473 533.978 964.356 535.812 963.626 537.429C958.355 549.114 926.26 592.242 917.204 600.734C916.319 597.502 915.645 583.724 915.453 579.626C932.809 562.033 952.683 531.345 963.514 508.785Z"/><path fill="#F5D163" d="M976.723 815.507C977.744 815.446 977.671 815.494 978.699 815.655C978.88 816.881 974.326 821.683 972.991 823.295C962.981 835.39 954.083 848.364 946.405 862.058C944.063 862.897 940.829 863.798 938.393 864.55C940.264 861.569 947.362 851.228 948.391 848.785C946.198 850.21 944.722 852.354 942.998 854.345C934.241 864.462 933.374 867.452 920.92 872.615C929.731 861.508 938.787 851.4 949.083 841.614C951.435 839.379 953.985 837.091 956.136 834.696C951.924 836.848 948.054 840.251 944.278 842.963C926.01 856.083 918.205 868.854 905.829 886.619C906.554 881.511 906.104 873.823 908.944 869.648C925.904 844.715 947.388 823.862 976.723 815.507Z"/><path fill="#F5D163" d="M208.053 858.772C211.048 861.471 217.86 902.044 219.774 909.068C220.069 912.896 224.404 923.392 224.174 926.303C223.245 938.075 223.558 950.273 224.269 961.879C221.238 955.109 219.615 947.821 217.763 940.665C213.051 922.453 209.108 903.952 207.702 885.159C207.422 881.414 207.149 877.682 206.648 873.963L206.355 873.984C205.322 875.667 204.823 881.796 204.709 883.869C203.293 909.54 206.072 937.538 212.079 962.507C208.096 957.275 206.05 950.786 204.446 944.558C200.042 927.463 195.857 912.532 198.91 894.75C201.157 881.655 202.18 871.236 208.053 858.772Z"/><path fill="#F5D163" d="M964.042 547.302C965.39 550.945 963.32 569.665 962.921 574.694C960.102 577.879 955.793 585.591 953.252 589.311C947.944 597.082 923.65 628.323 917.999 632.306C917.966 628.341 917.067 610.482 918.134 609.221C934.351 590.063 951.925 569.276 964.042 547.302Z"/><path fill="#F5D163" d="M574.922 902.163C578.742 901.403 587.838 908.133 591.915 910.618C589.739 911.368 587.614 911.808 585.343 912.355C558.479 918.83 531.074 924.002 503.735 927.971C502.084 928.21 499.526 927.552 497.885 927.145C491.251 925.491 484.637 923.756 478.045 921.942C481.112 921.095 484.142 920.712 487.294 920.296C507.967 917.569 528.267 912.318 548.69 908.156C557.459 906.368 566.095 903.888 574.922 902.163Z"/><path fill="#F5D163" d="M576.254 545.426C579.41 546.672 583.036 549.005 585.718 551.096C608.357 568.744 611.276 594.382 601.155 619.939C599.34 624.778 598.156 626.904 595.068 631.086C592.75 633.953 589.745 637.183 586.431 633.078L586.104 632.855C584.374 633.662 584.047 633.66 582.532 633.293C582.044 632.428 581.527 631.764 582.037 630.654C584.973 624.317 591.286 618.118 593.097 611.347C598.347 591.716 594.945 567.147 575.951 555.869C576.081 552.389 576.182 548.908 576.254 545.426Z"/><path fill="#141214" d="M599.861 618.877C599.303 621.396 594.233 625.349 592.633 628.676C593.717 628.847 594.126 628.83 595.231 628.825C595.151 630.004 595.345 629.478 594.679 630.411L595.068 631.086C592.75 633.953 589.745 637.183 586.431 633.078L586.104 632.855C588.542 629.558 594.38 624.455 596.851 620.306C597.661 618.946 598.585 619.044 599.861 618.877Z"/><path fill="#F5D163" d="M586.431 633.078C590.305 631.095 590.078 629.354 594.679 630.411L595.068 631.086C592.75 633.953 589.745 637.183 586.431 633.078Z"/><path fill="#F5D163" d="M287.076 833.355C289.199 835.113 295.439 842.366 297.932 844.938C306.399 853.655 315.031 862.21 323.824 870.598C322.7 875.006 321.71 879.872 320.707 884.341L320.216 884.861C317.191 884.855 292.267 874.744 288.398 872.911C287.158 866.952 285.229 857.366 285.581 851.289C285.934 845.185 286.892 839.734 287.076 833.355Z"/><path fill="#F5D163" d="M513.338 610.44C509.879 605.501 511.093 593.565 512.104 587.78C514.998 571.227 524.203 555.886 538.154 546.334C540.135 544.978 543.384 542.852 545.79 543.193C546.911 544.873 547.037 545.369 547.751 547.3C545.137 547.471 543.291 547.334 541.029 548.591L540.573 549.365C542.008 550.613 543.706 550.319 545.585 550.194L546.09 550.157C543.264 551.671 537.305 555.446 535.186 558.131C534.818 558.598 535.867 561.123 536.162 561.849C531.164 569.185 527.685 574.02 524.975 582.517C520.123 597.727 523.255 622.301 538.517 630.737C537.7 633.463 536.812 636.719 535.839 639.336L536.169 640.473L534.541 642.191C532.882 641.175 528.863 637.625 527.991 635.881C527.825 634.23 527.258 633.233 526.593 631.722C527.484 630.865 527.194 631.131 528.369 630.582C528.844 630.375 529.531 629.961 530.003 629.697C529.448 627.897 528.31 629.166 526.949 627.384C523.881 623.368 522.808 619.435 519.398 615.577C515.374 614.049 515.656 613.952 513.338 610.44Z"/><path fill="#141214" d="M528.369 630.582C530.51 632.284 531.172 632.859 533.616 634.018C534.336 635.414 535.624 639.008 535.839 639.336L536.169 640.473L534.541 642.191C532.882 641.175 528.863 637.625 527.991 635.881C527.825 634.23 527.258 633.233 526.593 631.722C527.484 630.865 527.194 631.131 528.369 630.582Z"/><path fill="#C5AC66" d="M527.991 635.881C531.023 637.246 533.618 638.777 534.541 642.191C532.882 641.175 528.863 637.625 527.991 635.881Z"/><path fill="#F5D163" d="M883.8 727.46C884.984 728.693 879.652 746.6 878.311 747.755C866.433 757.989 851.753 765.36 839.11 774.628C834.264 778.18 828.062 784.317 823.735 788.63C823.372 781.759 823.047 773.55 822.012 766.832C840.908 760.348 868.804 740.443 883.8 727.46Z"/><path fill="#F5D163" d="M867.242 251.018C869.223 251.661 869.266 251.655 871.008 252.763C871.24 253.301 871.702 253.88 871.237 254.339C835.238 289.842 790.972 316.915 747.348 342.113C738.458 347.247 728.043 353.556 718.841 357.871C717.265 357.427 716.005 357.086 714.957 355.857C714.912 354.961 714.915 354.318 715.962 353.659C721.623 350.096 729.07 346.302 734.911 343.128C769.7 324.624 803.002 303.449 834.517 279.795C846.28 270.794 857.475 262.225 867.242 251.018Z"/><path fill="#F5D163" d="M960.855 587.919L961.275 588.549C959.922 599.235 957.303 609.606 954.734 620.052C949.581 625.291 944.266 633.5 939.386 639.451C932.202 648.213 925.282 655.475 917.312 663.504C916.75 661.471 917.69 644.035 918.048 641.191C934.417 625.229 948.791 607.341 960.855 587.919Z"/><path fill="#F5D163" d="M902.305 290.362C902.461 290.515 902.618 290.668 902.774 290.822C903.426 291.768 903.616 292.96 903.289 294.062C899.288 307.259 810.119 364.047 793.464 373.636C778.929 382.005 755.809 394.244 740.813 403.939C739.929 403.775 740.138 403.553 739.29 402.402C740.323 397.568 745.251 396.689 749.204 394.394C796.111 367.172 843.486 339.507 885.569 305.092C891.274 300.428 896.339 294.635 902.305 290.362Z"/><path fill="#F5D163" d="M766.46 874.113C767.272 876.094 765.387 882.471 764.816 884.769C747.888 894.732 704.124 909.816 684.052 915.852C682.191 916.412 670.032 914.121 667.15 913.627L664.546 912.915L664.281 912.412C674.185 909.347 685.471 906.961 695.192 903.542C718.59 895.31 744.515 885.45 766.46 874.113Z"/><path fill="#F5D163" d="M875.465 756.473C875.828 756.828 875.6 756.554 875.835 757.477C873.29 763.281 872.063 770.459 868.603 775.726C865.061 781.117 832.439 801.757 824.826 806.366C824.224 802.787 823.971 794.022 823.888 790.453C831.555 787.118 841.965 779.83 848.986 775.138C857.957 769.143 867.025 763.181 875.465 756.473Z"/><path fill="#F5D163" d="M597.366 915.612C600.397 915.25 610.654 920.945 614.189 922.57C601.2 926.327 587.135 928.412 573.826 930.918C561.262 933.283 550.943 936.068 538.119 934.263C533.304 933.05 526.478 933.324 520.234 931.562C526.595 930.019 535.855 928.503 542.59 927.19C561.091 923.583 578.997 919.725 597.366 915.612Z"/><path fill="#F5D163" d="M964.85 862.123C961.391 866.757 952.968 875.377 948.627 880.409C943.755 886.055 933.926 899.192 929.007 903.735C930.981 899.518 940.377 884.357 940.067 881.642L939.316 881.629L938.419 881.071C941.195 878.424 944.021 875.829 946.893 873.288C927.83 881.939 914.84 894.003 903.33 911.158C903.876 905.082 904.371 899.028 905.174 892.98C920.709 875.853 941.895 864.899 964.85 862.123Z"/><path fill="#F5D163" d="M951.817 632.5C951.411 636.869 945.519 656.421 943.482 660.129C936.155 673.462 923.99 686.299 913.959 697.787C913.804 693.772 915.189 677.798 916.161 673.934C916.868 671.12 927.482 661.497 930.361 658.575C938.316 650.5 944.929 641.577 951.817 632.5Z"/><path fill="#F5D163" d="M534.315 676.924C534.678 669.015 545.933 630.943 551.863 623.137C552.427 622.395 553.869 622.18 554.802 622.276C556.604 622.462 557.532 622.882 558.647 624.395C559.697 625.779 560.372 627.765 559.86 629.494C555.271 644.971 549.887 660.909 542.511 675.305C541.662 676.961 536.607 681.609 534.793 681.921C534.758 680.539 535.611 679.614 536.402 678.4L534.315 676.924Z"/><path fill="#382D17" d="M534.315 676.924C537.119 675.011 538.059 674.435 541.158 673.027C539.543 674.956 538.191 676.611 536.402 678.4L534.315 676.924Z"/><path fill="#F5D163" d="M60.4751 908.064C67.0037 908.158 72.9302 909.463 78.5806 912.82C92.9776 921.374 105.643 945.312 109.532 960.905C106.447 957.875 99.7879 946.561 96.7355 942.274C91.4011 934.781 87.904 930.824 81.5564 924.313C77.829 920.221 76.5324 918.626 71.9136 915.583C79.9022 926.357 84.8023 936.334 89.2897 948.86C90.2783 951.619 92.6226 956.082 92.6523 958.914L91.813 959.08C88.5929 957.416 79.1491 934.915 75.2113 929.511C72.3829 925.63 62.0594 911.352 60.4751 908.064Z"/><path fill="#F5D163" d="M775.135 900.896C779.492 901.727 783.696 907.029 785.872 910.75C792.078 921.365 796.82 932.877 796.564 945.369C796.417 952.588 793.906 957.932 790.997 964.361C790.358 954.099 790.124 947.041 788.73 936.614L788.23 935.009L787.6 934.692C786.309 936.591 785.707 942.577 784.953 945.219C782.827 952.672 780.751 958.388 776.293 964.674C778.769 949.18 786.296 937.282 781.567 920.698C779.794 914.483 776.268 906.741 775.135 900.896Z"/><path fill="#F5D163" d="M622.971 926.596C623.846 926.57 641.244 932.768 644.431 933.619C633.063 937.676 599.288 940.129 587.076 940.412C579.738 940.315 571.227 939.877 564.096 938.565C567.227 937.81 570.461 937.297 573.634 936.711C590.22 933.65 606.608 930.717 622.971 926.596Z"/><path fill="#F5D163" d="M863.996 786.53C865.038 787.985 860.507 795.894 859.761 797.946C856.996 805.556 850.905 809.474 844.601 813.977C838.492 818.341 832.045 822.554 825.734 826.719C825.318 824.667 825.109 815.2 825.012 812.663C837.728 804.082 851.895 795.843 863.996 786.53Z"/><path fill="#F5D163" d="M424.68 886.822C428.251 887.065 430.694 889.854 433.038 892.273C425.897 910.4 404.484 933.445 384.119 935.871L377.861 935.966C381.192 932.782 386.018 927.886 389.61 925.292C403.358 924.228 407.219 915.709 416.34 906.808C419.84 903.392 424.825 897.223 426.038 892.464C426.332 891.309 424.234 889.424 424.68 886.822Z"/><path fill="#F5D163" d="M522.184 708.745C525.12 709.536 526.288 710.301 528.887 711.756C527.387 731.258 516.508 750.443 499.443 760.383C501.143 758.12 502.52 756.619 504.414 754.564C506.912 751.701 507.675 750.361 509.534 747.079C505.838 750.189 503.888 753.433 499.711 756.494C509.101 737.899 514.224 728.274 522.184 708.745Z"/><path fill="#F5D163" d="M500.976 732.461C502.098 732.41 502.022 732.4 503.069 732.809C503.298 734.595 497.68 743.117 496.224 744.485C487.648 752.544 481.927 760.199 477.381 771.22C474.937 777.144 473.094 783.42 469.61 789.127C468.934 788.437 468.372 787.645 467.945 786.78C465.77 782.348 467.457 777.089 468.839 772.685C473.847 756.724 485.665 740.058 500.976 732.461Z"/><path fill="#F5D163" d="M952.225 784.317L953.385 784.601C952.986 786.622 945.596 794.529 943.544 796.631C927.951 812.6 917.813 828.15 908.261 848.226L907.753 848.306C900.738 827.906 936.094 792.985 952.225 784.317Z"/><path fill="#F5D163" d="M173.97 871.749C175.857 872.742 177.599 875.703 178.665 877.55C189.79 896.823 191.362 918.446 195.397 939.744C196.795 947.022 198.461 954.245 200.392 961.4C191.889 959.473 182.558 900.033 178.939 890.006C177.573 886.221 175.041 876.163 173.97 871.749Z"/><path fill="#F5D163" d="M472.681 828.404L473.468 828.828C478.208 836.498 464.253 865.137 457.63 871.235C449.57 878.657 442.217 880.701 431.857 880.999C430.729 880.275 431.089 880.792 430.624 879.525C432.384 873.515 437.95 876.659 442.121 875.614C450.386 873.353 454.087 866.437 458.014 859.729C463.596 850.194 465.764 843.814 467.077 832.958C468.832 831.295 470.765 829.882 472.681 828.404Z"/><path fill="#F5D163" d="M488.066 781.81C488.929 782.023 488.467 781.83 489.379 782.538C490.472 789.203 473.483 811.547 470.066 818.134C469.093 820.01 462.362 826.378 460.43 827.677L459.645 827.314C460.011 824.049 464.248 820.362 466.173 817.159L465.647 816.858L463.988 818.206C461.224 820.87 458.182 823.749 456.195 827.052C455.495 828.218 455.536 828.294 454.518 829.339L454.095 828.974C453.77 822.694 466.67 808.291 470.311 801.51C474.235 794.201 480.705 785.894 488.066 781.81Z"/><path fill="#F5D163" d="M429.092 854.875C431.177 852.816 437.104 850.687 439.779 852.288L439.526 853.865C435.184 860.675 415.021 890.73 408.487 891.956C407.427 892.155 406.824 892.035 405.815 891.742C404.753 889.67 405.588 887.019 406.801 885.183C413.337 875.299 421.092 863.465 429.092 854.875Z"/><path fill="#F5D163" d="M429.092 854.875C431.177 852.816 437.104 850.687 439.779 852.288L439.526 853.865C435.013 852.992 433.001 854.805 429.092 854.875Z"/><path fill="#F5D163" d="M401.157 874.216C402.559 873.954 402.469 873.924 403.846 874.253L404.012 875.17C402.007 878.174 394 883.091 390.781 886.137C381.511 894.908 373.007 904.723 363.514 913.152L362.137 913.847L361.278 913.395C359.343 904.533 374.11 891.871 379.546 885.906C386.412 878.369 390.804 874.905 401.157 874.216Z"/><path fill="#F5D163" d="M451.989 808.65L458.185 808.435C453.137 814.453 447.267 818.886 441.812 824.45C435.422 830.969 430.52 838.949 425.382 846.433C423.126 849.719 421.172 851.785 419.147 855.299C418.654 856.232 416.983 858.397 416.298 859.335C416.624 847.761 421.244 839.913 427.876 830.65C434.439 821.485 440.539 810.814 451.989 808.65Z"/><path fill="#F5D163" d="M937.373 678.895C937.426 681.515 934.822 687.726 934.057 690.476C929.527 706.757 920.649 715.592 908.878 727.745C908.203 725.347 912.208 708.415 913.157 705.534C921.562 697.209 929.547 687.751 937.373 678.895Z"/><path fill="#F5D163" d="M331.087 875.33C331.303 875.54 331.753 875.943 331.807 876.198C334.822 890.566 335.17 913.25 332.801 926.88C328.786 928.013 326.272 928.935 322.749 931.098C322.224 931.516 321.767 931.707 321.166 932.028L320.808 931.507C321.148 930.835 321.476 930.153 321.828 929.487C328.177 917.46 324.802 892.015 331.087 875.33Z"/><path fill="#F5D163" d="M519.488 756.407C525.954 763.191 515.511 787.617 510.258 793.895C505.264 799.862 498.766 801.087 491.665 801.804C490.659 801.799 491.125 801.962 490.309 801.202C492.466 796.121 496.214 797.632 500.577 793.31C508.342 785.619 512.144 774.993 512.75 764.424C515.011 761.765 517.257 759.092 519.488 756.407Z"/><path fill="#F5D163" d="M623.516 401.019L624.315 401.303C624.921 405.165 623.805 406.547 619.951 407.973C598.271 415.998 576.443 423.741 555.195 432.873L553.993 428.101C576.958 418.545 600.138 409.515 623.516 401.019Z"/><path fill="#F5D163" d="M648.881 446.468C651.087 446.566 652.599 448.274 654.294 449.74C651.446 451.206 648.655 452.378 645.648 453.476C620.861 462.529 596.441 473.521 571.421 481.833C569.848 482.366 569.913 482.349 568.25 482.383C566.687 481.528 566.994 482.104 566.64 480.896C568.154 479.607 580.538 474.899 583.481 473.696C605.409 464.734 627.396 456.486 648.881 446.468Z"/><path fill="#F5D163" d="M347.402 931.311C347.736 931.71 346.56 937.222 346.533 939.419C332.016 941.672 325.986 950.643 314.975 958.953C314.975 958.954 312.921 959.076 312.711 959.089C312.198 958.516 311.491 957.449 311.749 956.671C317.133 940.454 331.556 931.624 347.402 931.311Z"/><path fill="#F5D163" d="M527.714 665.349C531.403 668.237 515.476 692.796 516.785 699.715C517.271 702.287 513.24 715.428 509.95 716.241C504.436 699.757 514.562 675.726 527.714 665.349Z"/><path fill="#F5D163" d="M356.399 936.603C354.901 938.417 355.316 938.488 353.435 939.128C351.842 935.917 380.386 900.151 385.315 913.524C386.519 916.79 369.947 929.54 367.089 932.936C366.227 933.959 360.066 939.456 359.214 939.823C358.513 939.082 358.711 939.513 358.578 938.55C357.629 937.352 357.665 937.528 356.399 936.603Z"/><path fill="#382D17" d="M359.663 933.608L360.675 934.728L358.578 938.55C357.629 937.352 357.665 937.528 356.399 936.603C356.729 936.22 359.164 934.063 359.663 933.608Z"/><path fill="#6C511F" d="M359.663 933.608C361.445 932.109 363.27 930.528 365.096 929.094L360.675 934.728L359.663 933.608Z"/><path fill="#F5D163" d="M547.123 695.938C547.996 693.757 549.157 690.98 549.6 688.712C550.436 684.437 549.867 679.634 551.564 675.608L552.211 675.409L552.526 675.927L551.548 675.808L552.703 676.431C554.382 683.935 554.414 687.368 553.074 694.817C549.477 707.109 544.485 718.947 534.16 727.014C535.735 716.706 541.572 704.884 547.123 695.938Z"/><path fill="#F5D163" d="M445.914 829.936L446.262 830.343C446.552 832.816 448.237 836.491 450.111 838.119C453.516 839.147 456.322 837.982 459.538 836.856C457.636 845.497 449.23 865.077 440.243 868.299C439.774 866.152 443.011 864.011 444.37 862.167C452.407 851.26 452.614 840.825 435.963 843.901C439.899 839.137 442.874 835.306 445.914 829.936Z"/><path fill="#F5D163" d="M938.419 881.071L939.316 881.629C916.302 902.317 915.891 910.772 901.153 934.656C902.013 931.119 902.691 923.003 903.836 920.276C910.546 904.289 925.522 891.45 938.419 881.071Z"/><path fill="#F5D163" d="M157.841 790.488L158.183 790.93C157.401 792.739 151.052 802.113 149.538 804.558C141.05 818.263 137.594 826.592 133.037 841.762C132.547 841.356 132.405 841.039 132.022 840.498C131.585 838.335 131.928 836.136 132.525 834.02C136.986 818.212 143.405 799.588 157.841 790.488Z"/><path fill="#F5D163" d="M841.223 823.193L843.095 825.312C836.865 834.412 832.662 839.754 824.73 847.637L825.004 833.713C830.299 829.803 835.619 826.63 841.223 823.193Z"/><path fill="#F5D163" d="M920.269 722.443C920.497 722.656 920.575 722.988 920.711 723.268C917.457 729.915 905.795 751.946 901.892 757.231L901.226 756.697C901.03 754.657 902.827 750.84 903.247 748.739C905.97 735.125 911.195 731.952 920.269 722.443Z"/><path fill="#F5D163" d="M369.402 944.376C371.314 946.194 370.613 960.055 370.585 963.544C367.745 963.478 364.751 963.21 361.905 963.009L360.89 962.593C359.81 956.205 365.694 948.821 369.402 944.376Z"/><path fill="#F5D163" d="M297.513 922.758C299.778 928.001 297.882 955.039 295.683 961.392C295.322 962.434 295.355 962.057 294.024 962.675L292.84 961.977C292.4 960.428 293.534 953.175 293.808 951.166C295.11 941.597 294.62 932.016 297.513 922.758Z"/><path fill="#F5D163" d="M413.647 931.902C414.963 933.164 415.411 938.516 416.061 940.745C417.941 947.191 420.312 953.416 423.041 959.546C424.366 962.522 426.399 965.858 427.113 968.86C417.717 963.523 410.298 941.646 413.647 931.902Z"/><path fill="#F5D163" d="M402.975 940.481L403.752 940.599C404.645 942.422 404.465 948.053 405.062 950.464C405.976 954.155 408.618 959.994 408.958 963.596L408.326 963.936L407.186 963.205C401.059 955.719 400.154 951.837 398.504 942.402L402.975 940.481Z"/><path fill="#F5D163" d="M774.396 931.242C774.905 931.509 774.585 931.304 775.228 932.018C774.547 942.465 764.517 956.421 757.349 963.922L756.92 963.898L756.604 963.332C760.396 958.132 764.004 951.068 767.02 945.31C769.288 940.978 771.315 934.853 774.396 931.242Z"/><path fill="#F5D163" d="M540.584 686.829L541.13 686.986L541.373 687.971C540.296 692.284 535.865 705.792 532.972 708.897C532.693 708.502 531.683 707.021 531.55 706.697C530.259 703.553 533.699 694.835 534.822 691.366C536.748 689.941 538.7 688.329 540.584 686.829Z"/><path fill="#F5D163" d="M315.765 919.321C316.605 921.911 313.563 935.457 313.342 939.027C313.283 939.989 308.762 947.162 307.918 948.53L307.664 948.512C306.427 943.225 311.636 924.053 315.765 919.321Z"/><path fill="#F5D163" d="M759.152 939.101L759.205 939.705C756.494 944.399 745.486 963.157 741.981 965.833C741.131 962.049 751.099 944.96 754.723 941.479C755.471 940.761 758.088 939.572 759.152 939.101Z"/><path fill="#F5D163" d="M429.479 940.824C430.691 941.6 432.77 945.417 433.617 946.905C438.594 955.652 444.477 963.209 450.626 971.166C449.901 971.021 449.222 970.898 448.595 970.412C438.407 962.529 432.437 952.874 429.479 940.824Z"/><path fill="#F5D163" d="M799.977 750.988C807.607 750.826 805.628 757.399 802.051 761.175C795.106 760.768 795.266 754.757 799.977 750.988Z"/><path fill="#F5D163" d="M342.691 949.823C343.54 949.951 344.956 949.955 345.284 950.503C346.616 952.73 347.026 960.975 346.473 963.08L345.48 963.373C344.024 963.312 341.622 963.343 340.654 962.508C340.604 959.566 341.391 952.435 342.691 949.823Z"/><path fill="#F5D163" d="M803.672 799.328C809.661 799.65 808.741 806.639 804.672 809.939C797.309 807.959 799.179 803.088 803.672 799.328Z"/><path fill="#F5D163" d="M387.037 945.474C387.523 945.439 390.3 945.16 390.427 945.613C392.277 952.212 394.226 959.038 396.47 965.678C391.538 962.001 388.22 951.315 387.037 945.474Z"/><path fill="#F5D163" d="M495.438 441.176C496.91 433.183 499.317 430.549 504.169 424.067C504.642 425.729 505.124 427.323 505.475 429.018C506.408 430.952 507.9 432.97 507.157 435.148C505.985 435.537 505.289 435.713 504.082 435.985C503.303 434.212 504.039 432.43 503.753 429.912L503.059 429.632C499.805 430.95 497.24 437.646 495.438 441.176Z"/><path fill="#F5D163" d="M504.663 767.094L506.033 767.681C505.854 771.279 500.032 781.107 498.113 784.64L497.638 784.734C497.851 783.43 498.2 781.194 498.199 779.913C498.193 775.61 502.1 771.187 504.663 767.094Z"/><path fill="#F5D163" d="M739.528 947.974C739.883 948.308 739.676 948.053 739.83 948.913C738.068 951.746 730.677 959.946 728.031 963.249L727.653 963.06C727.639 962.619 727.588 962.091 727.771 961.712C731.39 954.213 732.672 951.528 739.528 947.974Z"/><path fill="#F5D163" d="M462.889 953.799C466.777 954.983 479.886 969.01 483.046 972.726C477.974 971.566 466.622 957.959 462.889 953.799Z"/><path fill="#F5D163" d="M491.308 761.898C492.597 764.303 491.653 768.97 491.309 771.822C489.483 772.113 487.659 772.415 485.836 772.726L485.411 772.262C486.709 768.21 488.841 765.3 491.308 761.898Z"/><path fill="#F5D163" d="M527.067 687.189L527.811 687.763C528.533 689.786 524.446 701.225 523.554 703.966C522.85 703.984 523.233 704.065 522.477 703.494C522.143 699.369 525.287 690.979 527.067 687.189Z"/><path fill="#F5D163" d="M332.896 954.05C333.388 955.195 331.803 961.067 331.426 962.792L326.124 962.722L325.37 962.415C326.272 959.944 330.881 955.929 332.896 954.05Z"/><path fill="#F5D163" d="M379.613 946.348C380.071 946.579 380.758 946.933 380.831 947.523C381.683 954.361 382.763 959.001 386.052 965.11C381.594 963.09 378.008 950.203 379.613 946.348Z"/><path fill="#F5D163" d="M582.075 635.747C584.512 635.762 586.868 636.48 589.123 637.323L589.145 637.955L587.807 638.249C585.404 639.197 583.725 639.832 581.414 638.428C580.994 636.762 580.968 637.64 582.075 635.747Z"/><path fill="#F5D163" d="M450.642 956.353C451.865 957.284 461.558 967.429 462.348 969.024C457.804 967.032 452.859 960.811 450.642 956.353Z"/><path fill="#C5AC66" d="M520.624 425.083C524.127 424.429 529.967 428.008 529.469 431.819C527.569 428.439 525.274 427.248 521.589 426.4L520.78 426.222L520.624 425.083Z"/><path fill="#A38B41" d="M515.24 752.461L515.175 753.659C512.787 757.251 510.8 759.117 507.399 761.671C507.037 759.992 513.784 753.932 515.24 752.461Z"/><path fill="#C5AC66" d="M836.33 896.94L836.617 897.259C836.817 900.117 833.952 905.867 832.74 908.563L832.51 908.351C831.954 906.339 835.425 899.052 836.33 896.94Z"/><path fill="#F5D163" d="M353.84 949.774C355.335 949.801 355.393 949.681 356.698 950.333C356.853 951.908 355.973 952.607 354.942 954.32L354.341 955.213L353.711 955.21C353.27 952.975 353.537 952.087 353.84 949.774Z"/><path fill="#F5D163" d="M398.644 905.831C400.051 906.881 400.227 906.878 401.154 908.419C401.02 910.682 400.994 910.053 399.528 912.219L398.992 912.72C398.437 912.125 398.927 908.44 398.703 906.343L398.644 905.831Z"/><path fill="#F5D163" d="M300.251 955.405C300.666 955.911 301.982 960.908 302.509 962.253C300.519 961.967 300.841 962.327 299.66 961.184C299.079 959.28 299.785 957.397 300.251 955.405Z"/><path fill="#F5D163" d="M841.223 823.193L847.624 818.523C846.133 820.8 844.663 823.088 843.095 825.312L841.223 823.193Z"/><path fill="#C5AC66" d="M896.403 772.504L896.643 772.754C896.268 774.444 893.554 778.364 892.472 780.08L892.046 779.924C893.059 776.631 893.901 774.852 896.403 772.504Z"/><path fill="#F5D163" d="M117.023 861.451C117.648 865.15 117.967 868.97 118.335 872.71C117.363 870.252 116.804 869.044 116.302 866.416C117.094 864.972 116.94 863.222 117.023 861.451Z"/><path fill="#F5D163" d="M831.819 887.863C832.175 890.525 831.122 891.945 829.555 894.008C828.98 891.063 830.06 890.06 831.819 887.863Z"/><path fill="#F5D163" d="M933.79 952.487L935.263 954.442C933.829 955.565 933.318 956.425 931.891 956.436C931.903 954.839 932.852 953.86 933.79 952.487Z"/><path fill="#3A3939" d="M564.99 569.379L566.072 568.857L565.462 569.47C566.646 569.457 566.361 569.582 567.544 569.068L567.632 570.08C567.226 570.822 566.925 570.883 566.171 571.471L565.026 571.24L564.362 570.128L564.99 569.379Z"/></svg>